<svg width="89" height="61" xmlns="http://www.w3.org/2000/svg" xmlns:xlink="http://www.w3.org/1999/xlink" xmlns:svgjs="http://svgjs.com/svgjs" viewBox="530 378 89 61"><svg width="89" height="61" xmlns="http://www.w3.org/2000/svg" xmlns:xlink="http://www.w3.org/1999/xlink" xmlns:svgjs="http://svgjs.com/svgjs" viewBox="0 0.216 89 60.569" fill="#1a1818" x="530" y="378"><svg xmlns="http://www.w3.org/2000/svg" xmlns:xlink="http://www.w3.org/1999/xlink" width="89" height="61" viewBox="0.492 0.726 87.879 59.806"><path paint-order="stroke fill markers" fill-rule="evenodd" d="M85.592 17.4H75.18c-1.356 0-2.565-1.145-3.19-2.125C66.474 6.306 55.918.726 44.43.726 32.528.726 21.796 6.6 16.404 16.051l-.045.09c-.092.383-.47 1.259-1.816 1.259H3.258a2.775 2.775 0 0 0-2.766 2.776v18.6a2.768 2.768 0 0 0 2.766 2.77h9.415c.719 0 1.37.416 1.945 1.242.13.192.338.473.592.794.43.575.973 1.299 1.331 1.853 5.717 9.315 16.45 15.097 28.004 15.097 11.178 0 21.268-4.86 27.023-13.012.154-.234.358-.517.592-.843.739-1.04 1.746-2.468 2.54-4.06.508-.908.84-1.07 1.53-1.07h9.362a2.774 2.774 0 0 0 2.779-2.772V20.176a2.781 2.781 0 0 0-2.78-2.776zm-70.454.78v-.039c.99-.177 1.71-.804 1.973-1.744C22.373 7.214 32.829 1.515 44.43 1.515c11.204 0 21.514 5.428 26.895 14.17.77 1.21 2.18 2.496 3.854 2.496h10.412c.438 0 .823.142 1.15.376l-2.586 2.403a1.624 1.624 0 0 0-.875-.254H5.57c-.329 0-.64.097-.893.264l-2.105-2.657c.224-.077.453-.132.686-.132h11.88zm7.516 33.338c-.809-.604-1.767-1.627-2.72-2.781a54.12 54.12 0 0 1-2.01-2.635 83.311 83.311 0 0 1-1.741-2.518c-.555-.858-.938-1.48-1.02-1.657-.338-.659-.67-1.487-.11-2.256.55-.776 1.983-1.654 2.864-1.958l5.456 3.197-.249.413-4.66-2.592c3.6 10.264 13.92 17.673 26.08 17.673 11.927 0 21.439-7.262 25.21-17.24l-4.07 2.132-.124-.202a1.331 1.331 0 0 0-.1-.196l-.02-.025 5.61-3.245 3.583 2.866c-1.135 2.904-4.351 7.882-8.723 7.37-5.774 6.406-12.444 9.47-21.365 9.47-8.882 0-16.828-3.584-22.205-9.247l-2.654-.87c.868 1.759 2.085 3.346 2.96 4.284l.008.017zm42.122-9.722c-3.035 8.62-12.504 11.857-20.346 12.006-7.844-.15-17.3-3.386-20.356-12.006-.09-.24-.07-.401-.032-.443.015-.02.065-.025.1-.025h40.57c.044 0 .096.005.104.025.037.042.06.204-.04.443zm19.38-19.428v12.668c0 .488-.39.878-.875.878H5.57a.873.873 0 0 1-.876-.878V22.368c0-.48.388-.873.876-.873h77.71c.486 0 .876.393.876.873z"/></svg></svg><svg width="51" height="18" xmlns="http://www.w3.org/2000/svg" xmlns:xlink="http://www.w3.org/1999/xlink" xmlns:svgjs="http://svgjs.com/svgjs" viewBox="0 0.609 51 16.783" fill="#1a1818" x="549" y="381"><svg xmlns="http://www.w3.org/2000/svg" xmlns:xlink="http://www.w3.org/1999/xlink" width="51" height="18" viewBox="0.235 0.761 50.631 16.661"><path paint-order="stroke fill markers" fill-rule="evenodd" d="M5.306 17.106H46.37c1.433 0 .834-1.211.496-1.87 1.656.276 2.93.995 4 1.905C47.26 6.093 37.282.761 25.54.761 13.633.761 3.823 7.225.235 17.422c.881-.684 2.59-1.637 3.862-1.853-.058.711.276 1.537 1.209 1.537zm.107-2.204C8.886 5.872 16.745 2.82 25.43 2.82c8.986 0 18.074 2.938 20.94 12.086 0 0 .033.139.045.204l-.045-.204c.115.552.065.773-.55.773H6.083c-.386 0-.933-.11-.67-.776z"/></svg></svg><svg width="12" height="12" xmlns="http://www.w3.org/2000/svg" xmlns:xlink="http://www.w3.org/1999/xlink" xmlns:svgjs="http://svgjs.com/svgjs" viewBox="0 0.233 12 11.534" fill="#1a1818" x="541" y="400"><svg xmlns="http://www.w3.org/2000/svg" xmlns:xlink="http://www.w3.org/1999/xlink" width="12" height="12" viewBox="0.062 0.968 11.358 10.917"><path paint-order="stroke fill markers" fill-rule="evenodd" d="M8.359 9.256L5.034.968H.062v10.917H3.1V3.231l3.506 8.654h4.814V.968H8.359v8.288z"/></svg></svg><svg width="0" height="11" xmlns="http://www.w3.org/2000/svg" xmlns:xlink="http://www.w3.org/1999/xlink" xmlns:svgjs="http://svgjs.com/svgjs" fill="none" stroke-miterlimit="100" stroke="#040505" stroke-width="1.335" x="556" y="400"><svg xmlns="http://www.w3.org/2000/svg" xmlns:xlink="http://www.w3.org/1999/xlink" width="0" height="11"><path paint-order="stroke fill markers" d="M.442 11.881V.967 11.88"/></svg></svg><svg width="13" height="12" xmlns="http://www.w3.org/2000/svg" xmlns:xlink="http://www.w3.org/1999/xlink" xmlns:svgjs="http://svgjs.com/svgjs" viewBox="0 0.198 13 11.603" fill="#1a1818" x="582" y="400"><svg xmlns="http://www.w3.org/2000/svg" xmlns:xlink="http://www.w3.org/1999/xlink" width="13" height="12" viewBox="0.316 0.968 12.23 10.916"><path paint-order="stroke fill markers" fill-rule="evenodd" d="M4.222.968L.316 11.884h3.143l.687-1.972h4.533L7.85 7.5H4.994l1.422-4.088 2.993 8.472h3.138L8.679.968H4.222z"/></svg></svg><svg width="12" height="12" xmlns="http://www.w3.org/2000/svg" xmlns:xlink="http://www.w3.org/1999/xlink" xmlns:svgjs="http://svgjs.com/svgjs" viewBox="0.362 0 11.275 12" fill="#1a1818" x="559" y="400"><svg xmlns="http://www.w3.org/2000/svg" xmlns:xlink="http://www.w3.org/1999/xlink" width="12" height="12" viewBox="0.991 0.967 10.258 10.917"><path paint-order="stroke fill markers" fill-rule="evenodd" d="M7.384 5.184H4.13V3.413h6.138V.967H3.986C2.336.967.99 1.77.99 4.105c0 1.097.184 3.525 3.686 3.525H8v1.769h-6.68v2.485h6.797c1.6 0 3.132-1.281 3.132-3.393 0-2.122-1.134-3.307-3.864-3.307z"/></svg></svg><svg width="13" height="12" xmlns="http://www.w3.org/2000/svg" xmlns:xlink="http://www.w3.org/1999/xlink" xmlns:svgjs="http://svgjs.com/svgjs" viewBox="0.258 0 12.484 12" fill="#1a1818" x="595" y="400"><svg xmlns="http://www.w3.org/2000/svg" xmlns:xlink="http://www.w3.org/1999/xlink" width="13" height="12" viewBox="0.683 0.968 11.358 10.917"><path paint-order="stroke fill markers" fill-rule="evenodd" d="M8.974 9.256L5.648.968H.683v10.917H3.71V3.231l3.518 8.654h4.814V.968H8.974v8.288z"/></svg></svg><svg width="11" height="12" xmlns="http://www.w3.org/2000/svg" xmlns:xlink="http://www.w3.org/1999/xlink" xmlns:svgjs="http://svgjs.com/svgjs" viewBox="0 0.156 11 11.687" fill="#1a1818" x="571" y="400"><svg xmlns="http://www.w3.org/2000/svg" width="11" height="12" viewBox="0.527 0.967 10.275 10.917"><path paint-order="stroke fill markers" fill-rule="evenodd" d="M6.926 5.184h-3.25V3.413h6.138V.967H3.532C1.885.967.527 1.77.527 4.105c0 1.097.186 3.525 3.692 3.525h3.334v1.769H.858v2.485h6.799c1.605 0 3.145-1.281 3.145-3.393 0-2.122-1.142-3.307-3.876-3.307z"/></svg></svg></svg>