<svg width="77" height="77" xmlns="http://www.w3.org/2000/svg" xmlns:xlink="http://www.w3.org/1999/xlink" xmlns:svgjs="http://svgjs.com/svgjs" viewBox="1836 371 77 77"><svg width="58" height="58" xmlns="http://www.w3.org/2000/svg" xmlns:xlink="http://www.w3.org/1999/xlink" xmlns:svgjs="http://svgjs.com/svgjs" viewBox="0 0.054 58 57.893" fill="#1a1818" x="1846" y="377"><svg xmlns="http://www.w3.org/2000/svg" xmlns:xlink="http://www.w3.org/1999/xlink" width="58" height="58" viewBox="0.447 0.573 56.788 56.683"><path paint-order="stroke fill markers" fill-rule="evenodd" d="M31.959 57.13a28.81 28.81 0 0 0 13.984-5.455c1.39-1.03 3.861-3.416 5.008-4.832 2.906-3.59 4.916-7.841 5.9-12.456.36-1.7.382-2.02.385-5.354 0-3.093-.035-3.754-.304-5.15-1.612-8.4-6.653-15.445-14.111-19.716C40.204 2.67 36.833 1.482 33.586.91 31.424.532 27.165.457 25.1.76c-7.04 1.043-13.246 4.394-17.704 9.557-6.369 7.374-8.5 17.123-5.809 26.505C3.78 44.448 9.39 51.058 16.611 54.513c2.62 1.252 6.232 2.287 9.113 2.61 1.533.172 4.685.18 6.235.008zm-7.21-3.537c-8.62-1.453-16.104-7.434-19.206-15.348-1.197-3.045-1.655-5.264-1.762-8.5-.092-2.653.092-4.539.655-6.765 2.44-9.686 9.921-16.853 19.527-18.706 2.137-.416 2.289-.398 2.55.22.582 1.397 1.115 4.288 1.644 8.95.227.425-.052 3.65.874 3.256.181-.112.27-.44.348-1.251.565-5.817 1.473-10.638 2.13-11.317.171-.18.38-.172 1.62.027 5.132.829 9.809 3.254 13.608 7.063 1.995 1.995 3.249 3.69 4.443 5.993 2.16 4.173 3.06 8.064 2.889 12.544-.082 2.277-.297 3.672-.869 5.78-2.413 8.844-9.727 15.78-18.72 17.748-.872.194-1.887.39-2.255.44l-.66.087-.228-.527c-.664-1.585-1.505-6.252-1.856-10.275-.09-.993-.187-1.916-.226-2.052-.073-.244-.535-.334-.662-.127-.035.067-.237 1.537-.428 3.276-.585 5.205-1.393 9.243-1.903 9.566-.224.14-.182.142-1.513-.082z"/></svg></svg><svg width="45" height="17" xmlns="http://www.w3.org/2000/svg" xmlns:xlink="http://www.w3.org/1999/xlink" xmlns:svgjs="http://svgjs.com/svgjs" viewBox="0 0.469 45 16.063" fill="#1a1818" x="1853" y="397"><svg xmlns="http://www.w3.org/2000/svg" xmlns:xlink="http://www.w3.org/1999/xlink" width="45" height="17" viewBox="0.217 0.574 44.39 15.845"><path paint-order="stroke fill markers" fill-rule="evenodd" d="M22.307 9.142l.042-7.19.515-.042c.475-.042.53-.087.565-.49l.042-.44-1.453-.045c-1.898-.058-1.926-.05-1.876.487.04.388.102.45.53.513l.488.07.037 3.246c.02 1.784-.017 3.21-.077 3.17-.064-.038-.796-1.734-1.624-3.767l-1.508-3.7-1.821.035-1.826.04v.42c0 .379.045.419.527.46l.517.043-.03 6.563-.04 6.568h-.624-.622l-1.447-6.677C10.877.316 10.98.728 10.713.626 10.136.405 10.06.644 8.8 6.408c-1.271 5.817-1.63 6.971-2.43 7.817-.565.6-1.314.928-2.11.928h-.707l.04-6.576.035-6.573.485-.07c.438-.061.488-.116.488-.484v-.42H2.446.29l-.052.402c-.042.46.15.637.709.64h.388v13.081H.998c-.577 0-.78.147-.78.562 0 .219.049.423.106.458.055.04 1.789.025 3.856-.025l3.744-.087.426-2.092.428-2.085 1.144-.04c1.092-.04 1.15-.03 1.21.279.25 1.159.494 2.542.494 2.759 0 .186-.12.266-.447.298-.398.038-.456.092-.456.46v.42l3.346.036c2.891.032 3.357.007 3.493-.182.286-.39.068-.744-.487-.786l-.503-.045-.04-5.14c-.02-2.828.013-5.19.075-5.25.06-.061 1.072 2.282 2.25 5.21 2.903 7.213 2.58 6.529 3.032 6.476l.386-.044.032-7.193zM8.845 10.598c-.008-.336 1.038-5.046 1.117-5.046.11 0 1.085 4.886 1.008 5.046-.03.054-.52.102-1.087.102-.57 0-1.038-.048-1.038-.102zm19.943 5.66c1.194-.334 2.104-1.613 2.542-3.576.271-1.194.21-1.425-.35-1.425-.503 0-.508.01-.846 1.336-.376 1.45-.834 2.217-1.47 2.423-.916.306-1.737-.104-2.193-1.095-.27-.594-.3-.925-.343-4.264-.072-5.122.232-7.003 1.222-7.51 1.29-.67 2.388.263 2.774 2.363.171.918.28 1.09.662 1.02.228-.045.26-.251.333-2.204.047-1.187.052-2.235.02-2.332-.11-.308-.72-.201-.88.162l-.158.329-.666-.413C28.818.688 28.67.654 27.85.706c-.724.047-1.023.144-1.493.47-1.627 1.15-2.761 4.145-2.761 7.285 0 3.632 1.435 6.886 3.408 7.752.512.221 1.085.239 1.784.044zm15.673-.192c.311-.378.112-.7-.477-.776l-.545-.065-1.57-7.237c-.863-3.98-1.572-7.252-1.572-7.272 0-.02-.187-.035-.416-.035-.487 0-.393-.281-1.318 4.035-.354 1.645-1.006 4.653-1.436 6.68l-.799 3.687-.666.045-.66.04.038-6.58.032-6.584.488-.07c.433-.061.487-.116.487-.484v-.42h-2.152-2.16v.42c0 .368.05.423.49.485l.479.07v13.078l-.478.07c-.435.062-.498.124-.53.525l-.05.455 3.322-.037 3.308-.035.045-.386c.032-.333-.02-.395-.385-.472-.237-.045-.42-.122-.418-.17 0-.05.149-.776.318-1.62l.31-1.53 1.14-.039c1.088-.04 1.142-.03 1.21.279.246 1.174.49 2.545.49 2.766 0 .19-.095.264-.339.264-.201 0-.41.117-.485.271-.189.346-.184.366.07.624.308.309 3.975.324 4.23.018zm-6.222-5.68c.037-.172.271-1.328.525-2.575.251-1.241.498-2.259.557-2.259.06 0 .304 1.077.555 2.401.254 1.321.483 2.475.52 2.575.047.13-.221.172-1.077.172-1.115 0-1.145-.01-1.08-.314z"/></svg></svg><svg width="77" height="77" xmlns="http://www.w3.org/2000/svg" xmlns:xlink="http://www.w3.org/1999/xlink" xmlns:svgjs="http://svgjs.com/svgjs" viewBox="0.226 0 76.548 77" fill="#1a1818" x="1836" y="371"><svg xmlns="http://www.w3.org/2000/svg" width="77" height="77" viewBox="0.943 0.139 75.983 76.431"><path paint-order="stroke fill markers" fill-rule="evenodd" d="M38.329.14c12.395.097 24.936 4.742 37.61 13.544l.624.433.062.762c1.206 14.827-1.214 27.426-7.38 37.72-6.169 10.305-16.05 18.239-29.766 23.73l-.597.241-.595-.241C23.424 70.39 13.704 61.889 7.905 51.443 2.123 41.009.28 28.7 1.145 15.103l.048-.72.567-.445C13.71 4.514 25.907.043 38.33.14zm35.146 15.754C61.545 7.74 49.821 3.437 38.32 3.352 26.833 3.26 15.493 7.37 4.31 16.028 3.59 28.75 5.353 40.222 10.714 49.88c5.369 9.676 14.382 17.6 28.162 23.227C51.614 67.9 60.777 60.493 66.492 50.953c5.7-9.524 7.993-21.232 6.983-35.06z"/></svg></svg></svg>