<svg width="70" height="70" xmlns="http://www.w3.org/2000/svg" xmlns:xlink="http://www.w3.org/1999/xlink" xmlns:svgjs="http://svgjs.com/svgjs" viewBox="201 369 70 70"><svg width="14" height="20" xmlns="http://www.w3.org/2000/svg" xmlns:xlink="http://www.w3.org/1999/xlink" xmlns:svgjs="http://svgjs.com/svgjs" viewBox="0.083 0 13.834 20" fill="#1a1818" x="229" y="378"><svg xmlns="http://www.w3.org/2000/svg" xmlns:xlink="http://www.w3.org/1999/xlink" width="14" height="20" viewBox="0.331 0.054 13.106 18.948"><path paint-order="stroke fill markers" fill-rule="evenodd" d="M13.437.908A25.968 25.968 0 0 0 .331.88L6.899 19 13.437.909z"/></svg></svg><svg width="15" height="33" xmlns="http://www.w3.org/2000/svg" xmlns:xlink="http://www.w3.org/1999/xlink" xmlns:svgjs="http://svgjs.com/svgjs" viewBox="0.337 0 14.327 33" fill="#1a1818" x="247" y="394"><svg xmlns="http://www.w3.org/2000/svg" xmlns:xlink="http://www.w3.org/1999/xlink" width="15" height="33" viewBox="0.744 0.798 13.957 32.148"><path paint-order="stroke fill markers" fill-rule="evenodd" d="M14.7 9.975c0-3.231-.557-6.319-1.636-9.177L.744 32.946C9.006 28.614 14.7 19.949 14.7 9.976z"/></svg></svg><svg width="41" height="35" xmlns="http://www.w3.org/2000/svg" xmlns:xlink="http://www.w3.org/1999/xlink" xmlns:svgjs="http://svgjs.com/svgjs" viewBox="0.067 0 40.866 35" fill="#1a1818" x="215" y="381"><svg xmlns="http://www.w3.org/2000/svg" xmlns:xlink="http://www.w3.org/1999/xlink" width="41" height="35" viewBox="0.613 0.482 40.087 34.333"><path paint-order="stroke fill markers" fill-rule="evenodd" d="M33.843.572L26.248 21.47h-3.354-3.978-3.361L7.932.482C5.113 2.097 2.653 4.227.613 6.742L11.44 34.815l3.966-10.257h10.399l3.963 10.257L40.7 6.41A25.955 25.955 0 0 0 33.843.572z"/></svg></svg><svg width="70" height="70" xmlns="http://www.w3.org/2000/svg" xmlns:xlink="http://www.w3.org/1999/xlink" xmlns:svgjs="http://svgjs.com/svgjs" fill="#1a1818" x="201" y="369"><svg xmlns="http://www.w3.org/2000/svg" xmlns:xlink="http://www.w3.org/1999/xlink" width="70" height="70" viewBox="0.226 0.387 69.145 69.145"><path paint-order="stroke fill markers" fill-rule="evenodd" d="M34.814.387C15.784.387.226 15.91.226 34.977c0 19.008 15.559 34.555 34.588 34.555 19.048 0 34.557-15.547 34.557-34.554C69.37 15.91 53.86.387 34.814.387zm0 64.724c-16.601 0-30.17-13.54-30.17-30.136 0-16.631 13.569-30.192 30.17-30.192 16.602 0 30.17 13.561 30.17 30.192 0 16.597-13.568 30.136-30.17 30.136z"/></svg></svg><svg width="15" height="19" xmlns="http://www.w3.org/2000/svg" xmlns:xlink="http://www.w3.org/1999/xlink" xmlns:svgjs="http://svgjs.com/svgjs" viewBox="0.693 0 13.613 19" fill="#1a1818" x="228" y="411"><svg xmlns="http://www.w3.org/2000/svg" xmlns:xlink="http://www.w3.org/1999/xlink" width="15" height="19" viewBox="0.876 0.058 13.474 18.806"><path paint-order="stroke fill markers" fill-rule="evenodd" d="M7.588.058L.906 17.394l-.03.537c2.209.62 4.533.933 6.938.933 2.26 0 4.451-.284 6.536-.821l-.077-.65L7.588.059z"/></svg></svg><svg width="15" height="32" xmlns="http://www.w3.org/2000/svg" xmlns:xlink="http://www.w3.org/1999/xlink" xmlns:svgjs="http://svgjs.com/svgjs" viewBox="0.61 0 13.78 32" fill="#1a1818" x="209" y="395"><svg xmlns="http://www.w3.org/2000/svg" width="15" height="32" viewBox="0.903 0.367 13.477 31.295"><path paint-order="stroke fill markers" fill-rule="evenodd" d="M.903 8.975c0 9.745 5.434 18.299 13.477 22.687L2.374.367a25.44 25.44 0 0 0-1.47 8.608z"/></svg></svg></svg>