<svg width="110" height="70" xmlns="http://www.w3.org/2000/svg" xmlns:xlink="http://www.w3.org/1999/xlink" xmlns:svgjs="http://svgjs.com/svgjs" viewBox="930 369 110 70"><svg width="60" height="49" xmlns="http://www.w3.org/2000/svg" xmlns:xlink="http://www.w3.org/1999/xlink" xmlns:svgjs="http://svgjs.com/svgjs" viewBox="0 0.17 60 48.66" fill="#1a1818" x="955" y="369"><svg xmlns="http://www.w3.org/2000/svg" xmlns:xlink="http://www.w3.org/1999/xlink" width="60" height="49" viewBox="0.405 0.39 59.572 48.313"><path paint-order="stroke fill markers" fill-rule="evenodd" d="M1.999 36.224c.308 1.555.68 3.093 1.274 4.568.355.84.734 1.672 1.264 2.428.997 1.433 2.32 2.485 3.928 3.177.654.286 1.318.53 2 .731 1.898.575 3.856.866 5.824 1.028 1.886.16 3.784.291 5.677.363 2.74.102 5.469.137 7.606.184 2.291-.032 3.976-.052 5.657-.082 2.364-.055 4.737-.144 7.11-.32 1.767-.125 3.524-.294 5.272-.623 1.428-.266 2.84-.63 4.17-1.219 2.222-.977 3.901-2.52 4.909-4.742.425-.938.798-1.888 1.072-2.88.527-1.894.878-3.817 1.147-5.755.256-1.92.47-3.849.664-5.774.192-1.921.314-3.85.353-5.775.073-3.095.102-6.187-.161-9.277-.1-1.19-.299-2.356-.675-3.49-.617-1.929-1.669-3.563-3.294-4.79-1.054-.788-2.219-1.328-3.45-1.731-1.657-.54-3.356-.829-5.08-1.038A84.008 84.008 0 0 0 40.94.675c-2.189-.112-4.38-.189-6.565-.239-2.93-.07-5.866-.054-8.807.008-3.309.067-6.613.201-9.912.5-1.642.149-3.286.32-4.908.622-1.371.256-2.724.602-4.003 1.162-2.192.947-3.866 2.448-4.911 4.615C1.248 8.572.897 9.875.72 11.216c-.196 1.42-.273 2.854-.293 4.282a177.42 177.42 0 0 0 0 5.513c.052 3.291.365 6.565.736 9.837.204 1.804.488 3.592.836 5.376zM3.415 18.37c.04-1.573.094-3.147.196-4.717.082-1.391.234-2.762.65-4.108.532-1.706 1.44-3.147 2.91-4.204.834-.597 1.762-1.018 2.734-1.341 1.075-.358 2.185-.58 3.3-.724 1.552-.197 3.112-.376 4.676-.525a68.741 68.741 0 0 1 3.294-.217c1.822-.082 3.643-.189 5.464-.203a279.39 279.39 0 0 1 8.036.024c2.022.04 4.045.147 6.085.264 2.16.122 4.334.336 6.48.667 1.399.206 2.777.492 4.076 1.032 1.6.657 2.92 1.642 3.848 3.118.535.853.881 1.78 1.12 2.754.237.977.363 1.973.438 2.978.251 2.985.281 5.978.219 8.973a68.847 68.847 0 0 1-.341 5.314c-.134 1.45-.266 2.894-.44 4.332-.291 2.348-.67 4.675-1.41 6.94-.242.777-.546 1.531-.921 2.25-.933 1.814-2.354 3.085-4.235 3.866-1.157.475-2.363.756-3.585.95-2.105.346-4.232.508-6.364.63a162.85 162.85 0 0 1-8.762.236h-.696v.042c-2.526-.06-5.048-.094-7.581-.191-1.839-.072-3.68-.209-5.508-.36-1.53-.133-3.035-.344-4.52-.712a12.249 12.249 0 0 1-2.13-.744c-1.836-.839-3.175-2.18-4.033-3.98-.582-1.2-.983-2.459-1.296-3.74a43.02 43.02 0 0 1-.928-5.329c-.21-2.008-.418-4.02-.575-6.026-.214-2.418-.241-4.836-.201-7.25z"/></svg></svg><svg width="23" height="14" xmlns="http://www.w3.org/2000/svg" xmlns:xlink="http://www.w3.org/1999/xlink" xmlns:svgjs="http://svgjs.com/svgjs" viewBox="0 0.698 23 12.605" fill="#1a1818" x="930" y="425"><svg xmlns="http://www.w3.org/2000/svg" xmlns:xlink="http://www.w3.org/1999/xlink" width="23" height="14" viewBox="0.307 0.737 22.575 12.372"><path paint-order="stroke fill markers" fill-rule="evenodd" d="M12.955 2.399c.144.022.271.047.403.06.39.049.806.089 1.212.136.49.06.746.304.823.789.017.062.035.12.035.179 0 .674-.01 1.343-.01 2.013 0 .014-.025.034-.032.052-.364.06-7.384.04-7.613-.025v-1.12c.012-.353 0-.714.022-1.062.05-.483.319-.751.796-.818.22-.04.45-.05.67-.08.333-.035.659-.077.997-.124 0-.307.008-.58 0-.859-.012-.268.032-.542-.025-.803H.307v1.662c.149.022.276.047.408.06.398.049.8.089 1.214.136.487.06.744.296.84.786.02.14.02.284.02.423v6.215c0 .157 0 .303-.027.455-.094.475-.35.704-.828.759-.41.052-.806.092-1.212.137-.144.02-.279.047-.41.067v1.627c.333.067 9.705.055 9.934-.012v-1.628c-.515-.062-1.023-.129-1.528-.181-.62-.065-.903-.321-.928-.948-.017-.677-.005-1.358-.005-2.037 0-.02.023-.03.03-.045.415-.068 7.369-.045 7.613.025v1.967c0 .085-.018.165-.035.247-.077.47-.321.716-.796.778-.227.03-.445.048-.672.075-.313.037-.644.082-.965.12v1.659h9.921v-1.657c-.169-.025-.325-.045-.482-.065-.39-.042-.784-.082-1.18-.132-.45-.062-.686-.293-.776-.746a3.121 3.121 0 0 1-.034-.507 827.847 827.847 0 0 1 0-6.126c0-.161.007-.323.027-.487.097-.483.358-.71.853-.771.227-.03.47-.05.694-.075.299-.035.592-.077.898-.117V.737h-9.926v1.662z"/></svg></svg><svg width="23" height="14" xmlns="http://www.w3.org/2000/svg" xmlns:xlink="http://www.w3.org/1999/xlink" xmlns:svgjs="http://svgjs.com/svgjs" viewBox="0 0.46 23 13.08" fill="#1a1818" x="974" y="425"><svg xmlns="http://www.w3.org/2000/svg" xmlns:xlink="http://www.w3.org/1999/xlink" width="23" height="14" viewBox="0.265 0.706 21.809 12.402"><path paint-order="stroke fill markers" fill-rule="evenodd" d="M14.15.764v1.627c.06.015.109.027.166.03.47.062.948.117 1.428.171.53.063.796.324.859.854.017.08.017.162.017.241v5.906c0 .063-.017.125-.032.23a3.597 3.597 0 0 1-.25-.327c-2.079-2.719-4.146-5.43-6.201-8.157-.306-.403-.66-.62-1.157-.62L8.733.717H.541c-.082 0-.172.01-.276.02v1.661c.124.02.236.043.338.055.418.05.824.09 1.254.14.51.052.779.3.868.818.028.142.015.286.015.425.013 2.055.013 4.1.013 6.153 0 .11 0 .221-.02.333-.048.575-.326.859-.91.918-.225.023-.456.045-.695.077-.289.035-.575.078-.863.115v1.632c.326.065 7.687.055 7.914-.005.052-.363.04-1.413-.02-1.637-.15-.02-.299-.04-.448-.057-.396-.045-.779-.08-1.154-.137-.493-.06-.764-.35-.811-.843-.008-.115-.008-.222-.008-.334-.005-1.9 0-3.796 0-5.697v-.289c.02 0 .035-.01.067-.017.063.09.132.177.202.264 2.06 2.721 4.137 5.436 6.19 8.165.333.438.736.632 1.278.63 1.956-.01 3.909-.008 5.87-.008.074 0 .168-.013.263-.023v-.4V3.91c0-.147 0-.286.012-.425.038-.54.334-.831.861-.894.241-.024.473-.05.7-.077.305-.032.599-.077.892-.117V.74c-.46-.057-7.702-.035-7.924.025z"/></svg></svg><svg width="22" height="14" xmlns="http://www.w3.org/2000/svg" xmlns:xlink="http://www.w3.org/1999/xlink" xmlns:svgjs="http://svgjs.com/svgjs" viewBox="0 0.369 22 13.263" fill="#1a1818" x="996" y="425"><svg xmlns="http://www.w3.org/2000/svg" xmlns:xlink="http://www.w3.org/1999/xlink" width="22" height="14" viewBox="0.874 0.713 20.557 12.393"><path paint-order="stroke fill markers" fill-rule="evenodd" d="M21.394 6.212c-.15-1.572-.813-2.878-2.077-3.85-.557-.431-1.192-.742-1.846-.991-1.324-.483-2.707-.652-4.115-.654-4.013-.008-8.036 0-12.036 0-.092 0-.182.005-.274.017v1.677c.438.042.86.09 1.289.132.788.082 1.025.346 1.025 1.137v6.339c0 .14-.005.28-.023.423-.092.502-.353.739-.863.798-.234.02-.465.045-.697.075-.293.035-.602.08-.903.117v1.674h.413c3.874 0 7.743.003 11.616-.01.71 0 1.426-.027 2.137-.097a9.289 9.289 0 0 0 3.155-.853c1.418-.687 2.443-1.717 2.938-3.224.286-.886.35-1.796.261-2.71zM15.52 8.623c-.077.319-.199.64-.36.928-.364.635-.963.953-1.667 1.08-.346.06-.707.087-1.058.087-1.298.017-2.594.007-3.888.007-.09 0-.177-.01-.274-.012V3.125c.072-.005.144-.025.217-.025 1.348 0 2.694-.002 4.045 0 .458.005.925.06 1.37.204a2.28 2.28 0 0 1 1.449 1.351c.266.627.318 1.301.348 1.968.02.677 0 1.346-.182 2z"/></svg></svg><svg width="21" height="14" xmlns="http://www.w3.org/2000/svg" xmlns:xlink="http://www.w3.org/1999/xlink" xmlns:svgjs="http://svgjs.com/svgjs" viewBox="0 0.161 21 13.678" fill="#1a1818" x="953" y="425"><svg xmlns="http://www.w3.org/2000/svg" xmlns:xlink="http://www.w3.org/1999/xlink" width="21" height="14" viewBox="0.396 0.296 20.327 13.239"><path paint-order="stroke fill markers" fill-rule="evenodd" d="M18.329 2.182c-.916-.672-1.955-1.072-3.053-1.358C13.736.418 12.152.309 10.6.296 9.131.301 7.716.401 6.32.71c-1.075.234-2.107.575-3.04 1.145C1.397 2.996.406 4.662.397 6.864c-.02 2.147.888 3.817 2.689 4.99a7.902 7.902 0 0 0 1.592.79c1.249.465 2.555.701 3.894.808 1.99.154 3.965.11 5.93-.264 1.128-.219 2.21-.564 3.205-1.14 1.809-1.044 2.869-2.584 3-4.684.137-2.144-.622-3.9-2.378-5.182zm-3.496 6.262c-.288 1.36-1.121 2.207-2.46 2.523a7.782 7.782 0 0 1-3.722-.028c-1.33-.333-2.114-1.204-2.376-2.535-.104-.48-.132-.978-.189-1.473.033-.59.08-1.161.234-1.721C6.634 4 7.395 3.224 8.6 2.9c1.244-.333 2.52-.333 3.782-.037 1.323.32 2.159 1.154 2.448 2.498a7.236 7.236 0 0 1 .004 3.082z"/></svg></svg><svg width="24" height="14" xmlns="http://www.w3.org/2000/svg" xmlns:xlink="http://www.w3.org/1999/xlink" xmlns:svgjs="http://svgjs.com/svgjs" viewBox="0 0.653 24 12.693" fill="#1a1818" x="1016" y="425"><svg xmlns="http://www.w3.org/2000/svg" xmlns:xlink="http://www.w3.org/1999/xlink" width="24" height="14" viewBox="0.454 0.709 23.451 12.403"><path paint-order="stroke fill markers" fill-rule="evenodd" d="M21.178 10.46c-.918-1.426-1.856-2.84-2.784-4.26-1.025-1.562-2.057-3.12-3.073-4.687-.333-.518-.758-.804-1.403-.804C10.9.722 7.89.712 4.87.712c-.085 0-.174.015-.269.022V2.4c.125.022.236.04.36.054.593.07 1.168.132 1.77.202.512.057.764.502.532.97-.04.075-.074.14-.124.211C5.76 6.068 4.382 8.295 3.01 10.524c-.06.1-.119.191-.189.281a1.047 1.047 0 0 1-.776.435c-.211.02-.445.045-.66.067-.308.038-.626.08-.932.122v1.64c.44.07 7.697.05 7.919-.022v-1.62c-.19-.025-.378-.045-.56-.067-.318-.035-.644-.053-.965-.12-.518-.11-.675-.485-.406-.933.142-.258.321-.495.456-.756.109-.201.24-.249.465-.249 2.34.01 4.684.005 7.025.005.058 0 .115-.012.157.005.062.018.157.048.202.102.201.304.413.602.58.926.196.353.084.667-.294.813-.22.08-.45.115-.69.147-.38.05-.756.082-1.156.124v1.645c.057.017.08.03.107.03 3.473.005 6.946.005 10.424.005.045 0 .102-.013.152-.018l.015-.017c.014 0 .014-.015.02-.025V11.43c-.48-.06-.963-.134-1.429-.169-.58-.044-.977-.323-1.298-.8zM8.428 7.072a446.34 446.34 0 0 0 2.286-3.702c.179.147 2.239 3.244 2.46 3.69-.214.064-4.291.08-4.747.012z"/></svg></svg><svg width="37" height="42" xmlns="http://www.w3.org/2000/svg" xmlns:xlink="http://www.w3.org/1999/xlink" xmlns:svgjs="http://svgjs.com/svgjs" viewBox="0.062 0 36.877 42" fill="#1a1818" x="967" y="373"><svg xmlns="http://www.w3.org/2000/svg" width="37" height="42" viewBox="0.355 0.474 35.672 40.628"><path paint-order="stroke fill markers" fill-rule="evenodd" d="M.515 3.584c.072 1.065.137 2.13.207 3.19.107 1.743.224 3.487.33 5.229.095 1.428.182 2.858.277 4.284.107 1.657.231 3.324.343 4.978.082 1.329.17 2.657.271 3.983.125 1.811.261 3.623.386 5.434.122 1.475.221 2.958.338 4.436.14 1.709.281 3.413.426 5.127.007.144.03.291.05.433 1.072.236 5.01.43 5.938.415.037-.129.075-.26.117-.398.507-1.866 1.01-3.739 1.537-5.6a15.17 15.17 0 0 1 1.15-2.95c.607-1.185 1.572-1.849 2.888-2.053a22.044 22.044 0 0 1 3.43-.264c1.165 0 2.32.085 3.469.276 1.246.212 2.19.849 2.776 1.976.125.244.25.488.361.741.4.926.742 1.884 1.005 2.864.468 1.672.906 3.346 1.361 5.025.04.132.085.264.12.383 1.159.065 5.393-.25 5.955-.445 1.108-13.258 1.936-26.545 2.777-39.86-1.38-.204-2.744-.277-4.122-.314a5.403 5.403 0 0 0-.073.291c-.552 2.503-1.107 5.008-1.661 7.516a274.423 274.423 0 0 1-2.69 10.932c-.323 1.179-.704 2.336-1.239 3.435-1.012 2.125-2.72 3.294-5.048 3.62-.863.122-1.736.16-2.61.167-1.278.005-2.552 0-3.81-.239-1.58-.286-2.882-1.017-3.88-2.289-.5-.634-.835-1.36-1.139-2.107-.512-1.284-.88-2.615-1.239-3.948-1.37-5.294-2.567-10.626-3.72-15.967-.106-.468-.213-.926-.325-1.41A36.646 36.646 0 0 0 .358.777c0 .112-.007.186 0 .256.045.85.112 1.699.157 2.55z"/></svg></svg></svg>