<svg width="114" height="58" xmlns="http://www.w3.org/2000/svg" xmlns:xlink="http://www.w3.org/1999/xlink" xmlns:svgjs="http://svgjs.com/svgjs" viewBox="791 381 114 58"><svg width="4" height="7" xmlns="http://www.w3.org/2000/svg" xmlns:xlink="http://www.w3.org/1999/xlink" xmlns:svgjs="http://svgjs.com/svgjs" viewBox="0.143 0 3.715 7" fill="#1a1818" x="823" y="432"><svg xmlns="http://www.w3.org/2000/svg" xmlns:xlink="http://www.w3.org/1999/xlink" width="4" height="7" viewBox="0.711 0.517 3.169 5.972"><path paint-order="stroke fill markers" fill-rule="evenodd" d="M.711 6.489h1.116v-2.71h1.93v-.874h-1.93V1.392H3.88V.517H.711v5.972z"/></svg></svg><svg width="0" height="6" xmlns="http://www.w3.org/2000/svg" xmlns:xlink="http://www.w3.org/1999/xlink" xmlns:svgjs="http://svgjs.com/svgjs" fill="none" stroke-miterlimit="100" stroke="#040505" stroke-width=".364" x="873" y="432"><svg xmlns="http://www.w3.org/2000/svg" xmlns:xlink="http://www.w3.org/1999/xlink" width="0" height="6"><path paint-order="stroke fill markers" d="M.624 6.532V.563v5.97"/></svg></svg><svg width="5" height="7" xmlns="http://www.w3.org/2000/svg" xmlns:xlink="http://www.w3.org/1999/xlink" xmlns:svgjs="http://svgjs.com/svgjs" viewBox="0.31 0 4.38 7" fill="#1a1818" x="887" y="432"><svg xmlns="http://www.w3.org/2000/svg" xmlns:xlink="http://www.w3.org/1999/xlink" width="5" height="7" viewBox="0.601 0.532 3.738 5.973"><path paint-order="stroke fill markers" fill-rule="evenodd" d="M.601 1.406h1.31v5.1H3.03v-5.1h1.31V.532H.6v.874z"/></svg></svg><svg width="0" height="6" xmlns="http://www.w3.org/2000/svg" xmlns:xlink="http://www.w3.org/1999/xlink" xmlns:svgjs="http://svgjs.com/svgjs" fill="none" stroke-miterlimit="100" stroke="#040505" stroke-width=".367" x="791" y="432"><svg xmlns="http://www.w3.org/2000/svg" xmlns:xlink="http://www.w3.org/1999/xlink" width="0" height="6"><path paint-order="stroke fill markers" d="M.765 6.532V.563v5.97"/></svg></svg><svg width="5" height="7" xmlns="http://www.w3.org/2000/svg" xmlns:xlink="http://www.w3.org/1999/xlink" xmlns:svgjs="http://svgjs.com/svgjs" viewBox="0.276 0 4.448 7" fill="#1a1818" x="855" y="432"><svg xmlns="http://www.w3.org/2000/svg" xmlns:xlink="http://www.w3.org/1999/xlink" width="5" height="7" viewBox="0.371 0.508 3.795 5.973"><path paint-order="stroke fill markers" fill-rule="evenodd" d="M3.201 5.011l.02.05H3.2v-.05L1.686.508H.371v5.974h.945V1.984L2.87 6.482h1.296V.508h-.959l-.006 4.503z"/></svg></svg><svg width="0" height="6" xmlns="http://www.w3.org/2000/svg" xmlns:xlink="http://www.w3.org/1999/xlink" xmlns:svgjs="http://svgjs.com/svgjs" fill="none" stroke-miterlimit="100" stroke="#040505" stroke-width=".367" x="905" y="432"><svg xmlns="http://www.w3.org/2000/svg" xmlns:xlink="http://www.w3.org/1999/xlink" width="0" height="6"><path paint-order="stroke fill markers" d="M.027 6.532V.563v5.97"/></svg></svg><svg width="0" height="6" xmlns="http://www.w3.org/2000/svg" xmlns:xlink="http://www.w3.org/1999/xlink" xmlns:svgjs="http://svgjs.com/svgjs" fill="none" stroke-miterlimit="100" stroke="#040505" stroke-width=".366" x="840" y="432"><svg xmlns="http://www.w3.org/2000/svg" xmlns:xlink="http://www.w3.org/1999/xlink" width="0" height="6"><path paint-order="stroke fill markers" d="M.855 6.532V.563v5.97"/></svg></svg><svg width="4" height="7" xmlns="http://www.w3.org/2000/svg" xmlns:xlink="http://www.w3.org/1999/xlink" xmlns:svgjs="http://svgjs.com/svgjs" viewBox="0 0.357 4 6.286" fill="#1a1818" x="806" y="432"><svg xmlns="http://www.w3.org/2000/svg" xmlns:xlink="http://www.w3.org/1999/xlink" width="4" height="7" viewBox="0.098 0.508 3.801 5.973"><path paint-order="stroke fill markers" fill-rule="evenodd" d="M2.929 5.011l.019.05h-.02v-.05L1.415.508H.098v5.974h.933V1.984l1.565 4.498h1.303V.508h-.964l-.006 4.503z"/></svg></svg><svg width="89" height="44" xmlns="http://www.w3.org/2000/svg" xmlns:xlink="http://www.w3.org/1999/xlink" xmlns:svgjs="http://svgjs.com/svgjs" viewBox="0 0.159 89 43.682" fill="#1a1818" x="804" y="381"><svg xmlns="http://www.w3.org/2000/svg" width="89" height="44" viewBox="0.689 0.463 87.389 42.891"><path paint-order="stroke fill markers" fill-rule="evenodd" d="M44.384.463C20.259.463.689 10.295.689 22.418c0 9.815 12.83 18.127 30.521 20.935l13.174-31.362L57.56 43.353c17.7-2.808 30.518-11.12 30.518-20.935C88.078 10.295 68.52.463 44.384.463zm20.064 32.971L44.384 10.217 24.4 33.37c-9.85-2.74-16.335-7.534-16.335-13.425 0-9.337 16.136-18.104 36.285-18.104 20.145 0 36.669 8.767 36.669 18.104 0 5.936-6.598 10.763-16.572 13.49z"/></svg></svg></svg>