<svg width="81" height="88" xmlns="http://www.w3.org/2000/svg" xmlns:xlink="http://www.w3.org/1999/xlink" xmlns:svgjs="http://svgjs.com/svgjs" viewBox="1622 351 81 88"><svg width="28" height="47" xmlns="http://www.w3.org/2000/svg" xmlns:xlink="http://www.w3.org/1999/xlink" xmlns:svgjs="http://svgjs.com/svgjs" viewBox="0.361 0 27.279 47" fill="#1a1818" x="1648" y="351"><svg xmlns="http://www.w3.org/2000/svg" xmlns:xlink="http://www.w3.org/1999/xlink" width="28" height="47" viewBox="0.963 0.159 26.825 46.218"><path paint-order="stroke fill markers" fill-rule="evenodd" d="M14.326.16L.963 23.324l13.363 23.052 13.462-23.052L14.326.16z"/></svg></svg><svg width="41" height="24" xmlns="http://www.w3.org/2000/svg" xmlns:xlink="http://www.w3.org/1999/xlink" xmlns:svgjs="http://svgjs.com/svgjs" viewBox="0 0.23 41 23.541" fill="#1a1818" x="1662" y="397"><svg xmlns="http://www.w3.org/2000/svg" xmlns:xlink="http://www.w3.org/1999/xlink" width="41" height="24" viewBox="0.326 0.376 40.194 23.078"><path paint-order="stroke fill markers" fill-rule="evenodd" d="M.326.376l13.462 23.078H40.52L27.162.376H.326z"/></svg></svg><svg width="41" height="24" xmlns="http://www.w3.org/2000/svg" xmlns:xlink="http://www.w3.org/1999/xlink" xmlns:svgjs="http://svgjs.com/svgjs" viewBox="0 0.201 41 23.598" fill="#1a1818" x="1622" y="397"><svg xmlns="http://www.w3.org/2000/svg" xmlns:xlink="http://www.w3.org/1999/xlink" width="41" height="24" viewBox="0.228 0.376 40.098 23.078"><path paint-order="stroke fill markers" fill-rule="evenodd" d="M.228 23.454h26.735L40.326.376H13.601L.228 23.454z"/></svg></svg><svg width="10" height="12" xmlns="http://www.w3.org/2000/svg" xmlns:xlink="http://www.w3.org/1999/xlink" xmlns:svgjs="http://svgjs.com/svgjs" viewBox="0.218 0 9.563 12" fill="#1a1818" x="1627" y="427"><svg xmlns="http://www.w3.org/2000/svg" xmlns:xlink="http://www.w3.org/1999/xlink" width="10" height="12" viewBox="0.746 0.133 8.853 11.109"><path paint-order="stroke fill markers" fill-rule="evenodd" d="M5.114 5.192L2.942.132H.746v11.11H2.73V4.001L5.114 9.26 7.612 4v7.242h1.987V.132H7.41l-2.296 5.06z"/></svg></svg><svg width="0" height="12" xmlns="http://www.w3.org/2000/svg" xmlns:xlink="http://www.w3.org/1999/xlink" xmlns:svgjs="http://svgjs.com/svgjs" fill="none" stroke-miterlimit="100" stroke="#040505" stroke-width=".555" x="1639" y="427"><svg xmlns="http://www.w3.org/2000/svg" xmlns:xlink="http://www.w3.org/1999/xlink" width="0" height="12"><path paint-order="stroke fill markers" d="M.38 11.237V.133v11.104"/></svg></svg><svg width="8" height="12" xmlns="http://www.w3.org/2000/svg" xmlns:xlink="http://www.w3.org/1999/xlink" xmlns:svgjs="http://svgjs.com/svgjs" viewBox="0.352 0 7.296 12" fill="#1a1818" x="1641" y="427"><svg xmlns="http://www.w3.org/2000/svg" xmlns:xlink="http://www.w3.org/1999/xlink" width="8" height="12" viewBox="0.283 0.133 6.754 11.109"><path paint-order="stroke fill markers" fill-rule="evenodd" d="M.283 1.828h2.381v9.414h1.987V1.828h2.386V.133H.283v1.695z"/></svg></svg><svg width="8" height="12" xmlns="http://www.w3.org/2000/svg" xmlns:xlink="http://www.w3.org/1999/xlink" xmlns:svgjs="http://svgjs.com/svgjs" viewBox="0.262 0 7.477 12" fill="#1a1818" x="1648" y="427"><svg xmlns="http://www.w3.org/2000/svg" xmlns:xlink="http://www.w3.org/1999/xlink" width="8" height="12" viewBox="0.13 0.04 7.16 11.492"><path paint-order="stroke fill markers" fill-rule="evenodd" d="M4.411 4.797C2.83 4.001 2.217 3.605 2.217 2.814c0-.704.498-1.094 1.388-1.094 1.005 0 1.495.893 1.495 1.796h2C7.005 1.63 6.104.04 3.606.04 1.324.04.235 1.232.235 2.916c0 1.583.997 2.478 2.48 3.366 2.102 1.192 2.587 1.493 2.587 2.175 0 .803-.59 1.29-1.592 1.29-1.194 0-1.684-.984-1.684-1.972H.13c.104 2.077 1.002 3.757 3.58 3.757 1.896 0 3.58-1.085 3.58-3.165 0-1.789-1.09-2.575-2.879-3.57z"/></svg></svg><svg width="8" height="12" xmlns="http://www.w3.org/2000/svg" xmlns:xlink="http://www.w3.org/1999/xlink" xmlns:svgjs="http://svgjs.com/svgjs" viewBox="0 0.011 8 11.979" fill="#1a1818" x="1656" y="427"><svg xmlns="http://www.w3.org/2000/svg" xmlns:xlink="http://www.w3.org/1999/xlink" width="8" height="12" viewBox="0.131 0.137 7.548 11.302"><path paint-order="stroke fill markers" fill-rule="evenodd" d="M5.686 7.775c0 1.19-.584 1.873-1.664 1.873-1.314 0-1.916-.684-1.916-1.873V.137H.131v7.638c0 2.96 2.082 3.665 3.89 3.665 1.665 0 3.658-.791 3.658-3.665V.137H5.686v7.638z"/></svg></svg><svg width="9" height="12" xmlns="http://www.w3.org/2000/svg" xmlns:xlink="http://www.w3.org/1999/xlink" xmlns:svgjs="http://svgjs.com/svgjs" viewBox="0.469 0 8.062 12" fill="#1a1818" x="1664" y="427"><svg xmlns="http://www.w3.org/2000/svg" xmlns:xlink="http://www.w3.org/1999/xlink" width="9" height="12" viewBox="0.983 0.137 7.461 11.106"><path paint-order="stroke fill markers" fill-rule="evenodd" d="M6.449 5.394c.492-.11 1.594-.995 1.594-2.48 0-1.782-1.308-2.777-3.38-2.777H.982v11.106h4.07c1.995 0 3.39-1.294 3.39-3.08A2.81 2.81 0 0 0 6.45 5.394zm-1.894 4.16H2.958V1.827h1.503c.9 0 1.59.393 1.59 1.388 0 .992-.598 1.385-1.59 1.385H3.67v1.78h.79c1.185 0 1.887.405 1.887 1.487 0 1.194-.702 1.687-1.792 1.687z"/></svg></svg><svg width="10" height="12" xmlns="http://www.w3.org/2000/svg" xmlns:xlink="http://www.w3.org/1999/xlink" xmlns:svgjs="http://svgjs.com/svgjs" viewBox="0.604 0 8.793 12" fill="#1a1818" x="1684" y="427"><svg xmlns="http://www.w3.org/2000/svg" xmlns:xlink="http://www.w3.org/1999/xlink" width="10" height="12" viewBox="0.971 0.138 8.137 11.104"><path paint-order="stroke fill markers" fill-rule="evenodd" d="M7.036 4.496H3.054V.138H.97v11.104h2.083V6.38h4.074v4.863h1.98V.138H7.036v4.358z"/></svg></svg><svg width="0" height="12" xmlns="http://www.w3.org/2000/svg" xmlns:xlink="http://www.w3.org/1999/xlink" xmlns:svgjs="http://svgjs.com/svgjs" fill="none" stroke-miterlimit="100" stroke="#040505" stroke-width=".556" x="1674" y="427"><svg xmlns="http://www.w3.org/2000/svg" xmlns:xlink="http://www.w3.org/1999/xlink" width="0" height="12"><path paint-order="stroke fill markers" d="M.529 11.237V.133v11.104"/></svg></svg><svg width="0" height="12" xmlns="http://www.w3.org/2000/svg" xmlns:xlink="http://www.w3.org/1999/xlink" xmlns:svgjs="http://svgjs.com/svgjs" fill="none" stroke-miterlimit="100" stroke="#040505" stroke-width=".554" x="1696" y="427"><svg xmlns="http://www.w3.org/2000/svg" xmlns:xlink="http://www.w3.org/1999/xlink" width="0" height="12"><path paint-order="stroke fill markers" d="M.014 11.237V.133v11.104"/></svg></svg><svg width="8" height="13" xmlns="http://www.w3.org/2000/svg" xmlns:xlink="http://www.w3.org/1999/xlink" xmlns:svgjs="http://svgjs.com/svgjs" viewBox="0 0.14 8 12.72" fill="#1a1818" x="1676" y="426"><svg xmlns="http://www.w3.org/2000/svg" width="8" height="13" viewBox="0.81 0.936 7.173 11.404"><path paint-order="stroke fill markers" fill-rule="evenodd" d="M5.107 5.695c-1.61-.89-2.197-1.289-2.197-1.983 0-.694.587-1.084 1.378-1.084 1.003 0 1.5.786 1.6 1.778h1.88c-.101-1.878-.977-3.47-3.48-3.47-2.281 0-3.37 1.196-3.37 2.883 0 1.58.99 2.466 2.477 3.274 2.1 1.18 2.577 1.575 2.577 2.274 0 .789-.58 1.281-1.572 1.281-1.197 0-1.694-1.09-1.694-2.082H.81c.107 2.182 1 3.774 3.59 3.774 1.88 0 3.583-1.097 3.583-3.07-.015-1.89-1.093-2.58-2.876-3.575z"/></svg></svg></svg>