<svg width="98" height="60" xmlns="http://www.w3.org/2000/svg" xmlns:xlink="http://www.w3.org/1999/xlink" xmlns:svgjs="http://svgjs.com/svgjs" viewBox="296 379 98 60"><svg width="21" height="19" xmlns="http://www.w3.org/2000/svg" xmlns:xlink="http://www.w3.org/1999/xlink" xmlns:svgjs="http://svgjs.com/svgjs" viewBox="0 0.243 21 18.514" fill="#1a1818" x="352" y="420"><svg xmlns="http://www.w3.org/2000/svg" xmlns:xlink="http://www.w3.org/1999/xlink" width="21" height="19" viewBox="0.05 0.413 20.214 17.821"><path paint-order="stroke fill markers" fill-rule="evenodd" d="M7.165.413l4.008 4.45c-.346-.007-.672-.022-1.017-.022C4.59 4.841.05 6.966.05 11.538c0 3.687 4.54 6.695 10.106 6.695 5.562 0 10.108-3.008 10.108-6.695 0-3.535-4.598-8.247-6.946-11.125H7.165zm7.802 10.994c0 1.903-2.162 3.453-4.811 3.453-2.65 0-4.822-1.55-4.822-3.453 0-1.911 2.172-3.459 4.822-3.459s4.811 1.548 4.811 3.459z"/></svg></svg><svg width="17" height="14" xmlns="http://www.w3.org/2000/svg" xmlns:xlink="http://www.w3.org/1999/xlink" xmlns:svgjs="http://svgjs.com/svgjs" viewBox="0 0.022 17 13.956" fill="#1a1818" x="334" y="425"><svg xmlns="http://www.w3.org/2000/svg" xmlns:xlink="http://www.w3.org/1999/xlink" width="17" height="14" viewBox="0.535 0.224 16.213 13.31"><path paint-order="stroke fill markers" fill-rule="evenodd" d="M11.703 7.402c0 3.667-6 3.667-6 0V.224H.535v7.673c0 7.483 16.214 7.55 16.214 0V.224h-5.046v7.178z"/></svg></svg><svg width="0" height="13" xmlns="http://www.w3.org/2000/svg" xmlns:xlink="http://www.w3.org/1999/xlink" xmlns:svgjs="http://svgjs.com/svgjs" fill="none" stroke-miterlimit="100" stroke="#040505" stroke-width="1.694" x="376" y="425"><svg xmlns="http://www.w3.org/2000/svg" xmlns:xlink="http://www.w3.org/1999/xlink" width="0" height="13"><path paint-order="stroke fill markers" d="M.234 13.19V.224 13.19"/></svg></svg><svg width="28" height="19" xmlns="http://www.w3.org/2000/svg" xmlns:xlink="http://www.w3.org/1999/xlink" xmlns:svgjs="http://svgjs.com/svgjs" viewBox="0 0.499 28 18.001" fill="#1a1818" x="308" y="420"><svg xmlns="http://www.w3.org/2000/svg" xmlns:xlink="http://www.w3.org/1999/xlink" width="28" height="19" viewBox="0.669 0.86 26.948 17.325"><path paint-order="stroke fill markers" fill-rule="evenodd" d="M8.847.86l1.79 2.187L.67 18.186h5.988l1.625-2.677h11.384l1.704 2.677h6.248L15.646.86h-6.8zm1.572 11.116l3.433-5.67 3.588 5.67h-7.021z"/></svg></svg><svg width="98" height="35" xmlns="http://www.w3.org/2000/svg" xmlns:xlink="http://www.w3.org/1999/xlink" xmlns:svgjs="http://svgjs.com/svgjs" viewBox="0 0.102 98 34.796" fill="#1a1818" x="296" y="379"><svg xmlns="http://www.w3.org/2000/svg" xmlns:xlink="http://www.w3.org/1999/xlink" width="98" height="35" viewBox="0.858 0.108 96.801 34.37"><path paint-order="stroke fill markers" fill-rule="evenodd" d="M80.727.11a17.06 17.06 0 0 0-10.675 3.572A16.995 16.995 0 0 0 59.876.149 16.981 16.981 0 0 0 49.201 3.71 17.052 17.052 0 0 0 39.01.174c-3.981-.065-7.668 1.274-10.634 3.52A17.063 17.063 0 0 0 18.242.186C8.792.06.99 7.667.859 17.106c-.122 9.442 7.471 17.239 16.92 17.37a17.05 17.05 0 0 0 10.633-3.53 17.01 17.01 0 0 0 10.15 3.51 16.99 16.99 0 0 0 10.676-3.567 16.945 16.945 0 0 0 10.175 3.54c4 .067 7.72-1.281 10.676-3.552a17.126 17.126 0 0 0 10.183 3.535c9.444.117 17.248-7.469 17.385-16.913C97.779 8.05 90.176.25 80.727.11zm-.43 32.339a15.22 15.22 0 0 1-10.22-4.137c-2.944 2.65-6.511 4.224-10.634 4.162a15.046 15.046 0 0 1-10.192-4.123c-2.849 2.662-6.733 4.212-10.67 4.15a15.279 15.279 0 0 1-10.169-4.09c-.433.398-.94.819-1.515 1.229a15.07 15.07 0 0 1-9.1 2.883c-6.205-.082-11.522-3.905-13.786-9.297a7.62 7.62 0 0 1-1.565-.293 16.705 16.705 0 0 1-.98-5.817C1.586 8.276 8.688 1.12 17.423.808c.237.356.498.796.72 1.334h.076a15.195 15.195 0 0 1 10.417 4.366l-.122-2.147A16.539 16.539 0 0 1 38.21.793c.127.197.483.667.777 1.336 3.821.048 7.73 1.734 10.429 4.327l-.115-2.04a16.235 16.235 0 0 1 9.758-3.64c.241.35.495.786.716 1.323h.077c3.852.053 7.693 1.817 10.44 4.439l-.137-2.16a16.568 16.568 0 0 1 9.76-3.647c.131.2.696 1.339.788 1.339 8.153.378 14.666 5.261 14.997 15.402.259 8.367-7.038 15.089-15.402 14.977z"/></svg></svg><svg width="25" height="29" xmlns="http://www.w3.org/2000/svg" xmlns:xlink="http://www.w3.org/1999/xlink" xmlns:svgjs="http://svgjs.com/svgjs" viewBox="0.042 0 24.915 29" fill="#1a1818" x="299" y="382"><svg xmlns="http://www.w3.org/2000/svg" xmlns:xlink="http://www.w3.org/1999/xlink" width="25" height="29" viewBox="0.664 -0.001 24.327 28.316"><path paint-order="stroke fill markers" fill-rule="evenodd" d="M20.232 19.923a16.03 16.03 0 0 1-.975-5.83 16.319 16.319 0 0 1 3.55-10.003c.841-.025 1.697-.04 2.185-.04-2.603-2.525-6.1-4-9.787-4.05C7.3-.107.777 6.252.665 14.141c-.082 6.891 4.732 12.723 11.188 14.173.23-.278.47-.582.717-.888a14.15 14.15 0 0 0 2.259.22c3 .036 5.78-.916 8.16-2.69l1.998.037a15.366 15.366 0 0 1-3.205-4.79 7.412 7.412 0 0 1-1.55-.28zm-5.39 7.035c-6.954-.094-12.55-5.824-12.467-12.79.1-6.953 5.854-12.546 12.805-12.459 2.592.032 4.985.854 6.976 2.22-2.16 2.833-3.478 6.343-3.518 10.165a16.995 16.995 0 0 0 3.518 10.615c-1.54 1.018-4.153 2.287-7.315 2.25z"/></svg></svg><svg width="8" height="21" xmlns="http://www.w3.org/2000/svg" xmlns:xlink="http://www.w3.org/1999/xlink" xmlns:svgjs="http://svgjs.com/svgjs" viewBox="0.28 0 7.441 21" fill="#1a1818" x="320" y="386"><svg xmlns="http://www.w3.org/2000/svg" xmlns:xlink="http://www.w3.org/1999/xlink" width="8" height="21" viewBox="0.445 0.481 7.004 19.769"><path paint-order="stroke fill markers" fill-rule="evenodd" d="M6.674 6.233c.273-.707.776-1.088.776-1.088-.463-1.664-1.806-3.41-3.033-4.664A14.594 14.594 0 0 0 .45 10.129c-.07 2.532.9 6.54 2.831 8.774.366.43.655.908 1.162 1.346l.052-1.821c1.839-2.202 2.792-5.033 2.836-7.906.013-1.5-.206-2.946-.656-4.29zM4.412 17.498a12.524 12.524 0 0 1-2.254-7.345 12.55 12.55 0 0 1 2.234-6.998 12.644 12.644 0 0 1 2.25 7.352 12.526 12.526 0 0 1-2.23 6.99z"/></svg></svg><svg width="8" height="21" xmlns="http://www.w3.org/2000/svg" xmlns:xlink="http://www.w3.org/1999/xlink" xmlns:svgjs="http://svgjs.com/svgjs" viewBox="0.327 0 7.345 21" fill="#1a1818" x="341" y="386"><svg xmlns="http://www.w3.org/2000/svg" xmlns:xlink="http://www.w3.org/1999/xlink" width="8" height="21" viewBox="0.323 0.483 6.895 19.714"><path paint-order="stroke fill markers" fill-rule="evenodd" d="M6.437 6.215c.27-.714.782-1.092.782-1.092-.401-1.418-1.84-3.49-2.993-4.64a14.176 14.176 0 0 0-3.901 9.623C.267 14.002 1.795 17.57 4.3 20.197l.045-1.7c1.54-2.475 2.704-4.868 2.744-7.998a13.095 13.095 0 0 0-.652-4.284zM4.226 17.413a12.522 12.522 0 0 1-2.2-7.282c.04-2.57.841-4.946 2.187-6.926a12.712 12.712 0 0 1 2.192 7.277 12.738 12.738 0 0 1-2.18 6.931z"/></svg></svg><svg width="21" height="30" xmlns="http://www.w3.org/2000/svg" xmlns:xlink="http://www.w3.org/1999/xlink" xmlns:svgjs="http://svgjs.com/svgjs" viewBox="0 0.034 21 29.931" fill="#1a1818" x="345" y="381"><svg xmlns="http://www.w3.org/2000/svg" xmlns:xlink="http://www.w3.org/1999/xlink" width="21" height="30" viewBox="0.795 0.957 19.868 28.318"><path paint-order="stroke fill markers" fill-rule="evenodd" d="M15.936 20.866c-.664-1.827-1-3.78-.977-5.817.05-3.777 1.385-7.247 3.557-10.011l2.147.012c-2.674-2.515-6.06-4.038-9.817-4.092A14.312 14.312 0 0 0 .796 4.89a15.078 15.078 0 0 1 4.167 10.63c-.048 3.767-1.55 7.504-4.103 10.223a14.197 14.197 0 0 0 6.635 3.53c.214-.288.463-.592.71-.898.73.132 1.487.21 2.258.217 3.25.055 5.986-1.137 8.31-2.702l1.828-.05a15.554 15.554 0 0 1-3.112-4.692 7.184 7.184 0 0 1-1.553-.283zm-5.46 7.043a12.585 12.585 0 0 1-7.039-2.247A17.077 17.077 0 0 0 6.92 15.547c.063-3.971-1.258-7.648-3.507-10.596a12.555 12.555 0 0 1 7.408-2.284 12.64 12.64 0 0 1 7.006 2.251 17.105 17.105 0 0 0-3.483 10.116 17.077 17.077 0 0 0 3.508 10.603c-1.535 1.018-4.177 2.324-7.376 2.272z"/></svg></svg><svg width="24" height="30" xmlns="http://www.w3.org/2000/svg" xmlns:xlink="http://www.w3.org/1999/xlink" xmlns:svgjs="http://svgjs.com/svgjs" viewBox="0 0.405 24 29.191" fill="#1a1818" x="366" y="381"><svg xmlns="http://www.w3.org/2000/svg" xmlns:xlink="http://www.w3.org/1999/xlink" width="24" height="30" viewBox="0.656 0.917 23.289 28.326"><path paint-order="stroke fill markers" fill-rule="evenodd" d="M23.945 10.073C22.803 6.025 17.059.918 10.697.918 6.821.868 3.283 2.376.657 4.844A15.348 15.348 0 0 1 4.85 15.499c-.053 3.662-1.535 7.598-4.148 10.228a14.505 14.505 0 0 0 6.646 3.515c.216-.28.462-.584.711-.903.734.144 1.493.22 2.257.227 7.331.099 13.387-5.787 13.506-13.116a13.568 13.568 0 0 0-.667-4.287c.272-.71.789-1.09.789-1.09zm-13.616 17.81c-2.6-.03-5.023-.852-7.026-2.246a16.976 16.976 0 0 0 3.493-10.115A17.087 17.087 0 0 0 3.283 4.918a12.518 12.518 0 0 1 7.387-2.283c6.953.094 12.551 5.846 12.464 12.802-.095 6.954-5.849 12.534-12.805 12.447z"/></svg></svg><svg width="8" height="21" xmlns="http://www.w3.org/2000/svg" xmlns:xlink="http://www.w3.org/1999/xlink" xmlns:svgjs="http://svgjs.com/svgjs" viewBox="0.326 0 7.349 21" fill="#1a1818" x="362" y="386"><svg xmlns="http://www.w3.org/2000/svg" xmlns:xlink="http://www.w3.org/1999/xlink" width="8" height="21" viewBox="0.155 0.446 6.93 19.803"><path paint-order="stroke fill markers" fill-rule="evenodd" d="M6.3 6.185c.287-.709.784-1.087.784-1.087C6.631 3.461 5.281 1.69 4.052.446 1.686 2.97.208 6.34.156 10.069c-.048 3.95 1.505 7.54 4.057 10.18l.028-1.751c1.833-2.5 2.667-4.725 2.724-8.029A13.076 13.076 0 0 0 6.3 6.185zM4.077 17.403a12.467 12.467 0 0 1-2.204-7.307c.033-2.567.841-4.953 2.18-6.929a12.56 12.56 0 0 1 2.236 7.292 12.56 12.56 0 0 1-2.212 6.944z"/></svg></svg><svg width="20" height="30" xmlns="http://www.w3.org/2000/svg" xmlns:xlink="http://www.w3.org/1999/xlink" xmlns:svgjs="http://svgjs.com/svgjs" viewBox="0 0.671 20 28.659" fill="#1a1818" x="325" y="381"><svg xmlns="http://www.w3.org/2000/svg" width="20" height="30" viewBox="0.004 0.981 19.766 28.323"><path paint-order="stroke fill markers" fill-rule="evenodd" d="M15.09 20.9a16.776 16.776 0 0 1-.977-5.834 16.432 16.432 0 0 1 3.57-10l2.053-.048C17.016 2.5 13.802 1.032 9.976.983 6.117.928 2.606 2.423.004 4.888c2.707 2.884 4.247 6.514 4.205 10.656A15.21 15.21 0 0 1 .004 25.809c1.826 1.712 4.192 2.943 6.633 3.495.221-.296.45-.597.714-.91.734.14 1.493.216 2.254.224 2.694.04 6.187-.866 8.24-2.727l1.925-.007a15.235 15.235 0 0 1-3.12-4.707 7.71 7.71 0 0 1-1.56-.277zm-5.47 7.034a12.505 12.505 0 0 1-6.976-2.207A16.998 16.998 0 0 0 6.167 15.57c.04-3.995-1.284-7.7-3.54-10.643A12.596 12.596 0 0 1 9.95 2.692c2.617.04 5.033.87 7.038 2.259a17.13 17.13 0 0 0-3.48 10.115A17.049 17.049 0 0 0 17 25.65c-1.53 1.022-4.184 2.336-7.381 2.284z"/></svg></svg></svg>