<svg width="70" height="70" xmlns="http://www.w3.org/2000/svg" viewBox="105 369 70 70">
    <svg width="70" height="70" xmlns="http://www.w3.org/2000/svg"
        xmlns:xlink="http://www.w3.org/1999/xlink" xmlns:svgjs="http://svgjs.com/svgjs"
        viewBox="0 0.001 70 69.997" fill="#1a1818" x="105" y="369">
        <svg xmlns="http://www.w3.org/2000/svg" xmlns:xlink="http://www.w3.org/1999/xlink"
            width="70" height="70" viewBox="0.587 0.387 69.148 69.145">
            <path paint-order="stroke fill markers" fill-rule="evenodd"
                d="M35.166.387C16.099.387.587 15.898.587 34.957c0 19.065 15.512 34.575 34.579 34.575 19.062 0 34.569-15.51 34.569-34.574 0-19.06-15.507-34.571-34.569-34.571zm0 68.192c-18.54 0-33.621-15.082-33.621-33.621 0-18.54 15.081-33.616 33.621-33.616 18.542 0 33.61 15.076 33.61 33.616s-15.068 33.62-33.61 33.62z" />
        </svg>
    </svg>
    <svg width="6" height="6" xmlns="http://www.w3.org/2000/svg"
        xmlns:xlink="http://www.w3.org/1999/xlink" xmlns:svgjs="http://svgjs.com/svgjs"
        viewBox="0.313 0 5.374 6" fill="#1a1818" x="118" y="385">
        <svg xmlns="http://www.w3.org/2000/svg" xmlns:xlink="http://www.w3.org/1999/xlink" width="6"
            height="6" viewBox="0.959 0.303 4.625 5.163">
            <path paint-order="stroke fill markers" fill-rule="evenodd"
                d="M2.46 5.387c.032.027.064.057.099.08l.025-.026c.677-.846 1.356-1.689 2.023-2.527.246-.306.495-.612.738-.923a1.06 1.06 0 0 0 .16-1.075C5.315.54 4.95.286 4.52.304c-.351.012-.625.199-.839.468-.301.37-.597.746-.895 1.12-.615.758-1.22 1.527-1.827 2.29.314.254.632.508.948.762.19.147.371.293.553.443z" />
        </svg>
    </svg>
    <svg width="67" height="67" xmlns="http://www.w3.org/2000/svg"
        xmlns:xlink="http://www.w3.org/1999/xlink" xmlns:svgjs="http://svgjs.com/svgjs"
        fill="#1a1818" x="107" y="370">
        <svg xmlns="http://www.w3.org/2000/svg" xmlns:xlink="http://www.w3.org/1999/xlink"
            width="67" height="67" viewBox="0.145 0.941 66.038 66.038">
            <path paint-order="stroke fill markers" fill-rule="evenodd"
                d="M33.166.941C14.925.941.145 15.724.145 33.958c0 18.236 14.78 33.021 33.021 33.021 18.234 0 33.016-14.785 33.016-33.021C66.182 15.724 51.4.94 33.166.94zm-5.337 2.06 3.095-.34 2.242 6.533L35.4 2.66l3.095.34.343 9.293-2.408-.344-.234-6.195-2.174 6.195H32.3l-2.18-6.195-.22 6.195-2.409.344L27.83 3zM6.984 18.294a35.274 35.274 0 0 0-.744-.602l-.087-.074c.045-.053.08-.105.132-.157.644-.804 1.278-1.605 1.923-2.406.751-.933 1.495-1.873 2.246-2.804.142-.171.279-.356.426-.537.251-.314.59-.552.962-.7a2.26 2.26 0 0 1 2.344.498c.299.294.513.667.612 1.073.102.42.065.833-.055 1.241.055-.045.112-.097.172-.142.724-.505 1.67-.649 2.49-.276.819.373 1.344 1.112 1.47 1.993.03.33.013.662-.079.988-.19.617-.627 1.087-1.022 1.577-.772.963-1.54 1.918-2.304 2.876-.64.803-1.284 1.597-1.923 2.398-.05.065-.092.12-.145.18-.007.012-.06-.043-.074-.055-.232-.19-.476-.376-.71-.57-.937-.747-1.865-1.495-2.803-2.24-.94-.753-1.886-1.514-2.831-2.26zm26.182 36.303c-11.397 0-20.634-9.24-20.634-20.64 0-11.396 9.237-20.631 20.634-20.631s20.637 9.235 20.637 20.632c0 11.4-9.24 20.64-20.637 20.64zm19.657-31.305-1.187-2.03 4.082-5.359-6.125 2.807-1.719-1.592 5.58-7.337 1.73 1.597-3.227 4.232 5.152-2.364 1.51 1.881-3.436 4.508 4.827-2.219 1.19 2.03-8.377 3.846z" />
        </svg>
    </svg>
    <svg width="5" height="6" xmlns="http://www.w3.org/2000/svg"
        xmlns:xlink="http://www.w3.org/1999/xlink" xmlns:svgjs="http://svgjs.com/svgjs"
        viewBox="0 0.219 5 5.563" fill="#1a1818" x="116" y="383">
        <svg xmlns="http://www.w3.org/2000/svg" xmlns:xlink="http://www.w3.org/1999/xlink" width="5"
            height="6" viewBox="0.008 0.209 4.403 4.899">
            <path paint-order="stroke fill markers" fill-rule="evenodd"
                d="M4.382 1.495c.078-.338 0-.691-.236-.953a1.054 1.054 0 0 0-1.16-.258c-.285.12-.462.373-.646.617C1.603 1.804.884 2.704.163 3.61c-.01.012-.167.202-.154.206.137.12.288.234.438.356.388.314.776.622 1.156.936.389-.483.764-.956 1.147-1.433.386-.476.764-.95 1.147-1.426.187-.239.4-.458.485-.754z" />
        </svg>
    </svg>
    <svg width="21" height="20" xmlns="http://www.w3.org/2000/svg"
        xmlns:xlink="http://www.w3.org/1999/xlink" xmlns:svgjs="http://svgjs.com/svgjs"
        viewBox="0.497 0 20.005 20" fill="#1a1818" x="120" y="384">
        <svg xmlns="http://www.w3.org/2000/svg" xmlns:xlink="http://www.w3.org/1999/xlink"
            width="21" height="20" viewBox="0.572 0.368 19.595 19.589">
            <path paint-order="stroke fill markers" fill-rule="evenodd"
                d="M.572 19.958h19.594V.368C9.471.652.853 9.265.572 19.958z" />
        </svg>
    </svg>
    <svg width="20" height="21" xmlns="http://www.w3.org/2000/svg"
        xmlns:xlink="http://www.w3.org/1999/xlink" xmlns:svgjs="http://svgjs.com/svgjs"
        viewBox="0 0.499 20 20.002" fill="#1a1818" x="140" y="403">
        <svg xmlns="http://www.w3.org/2000/svg" width="20" height="21"
            viewBox="0.166 0.96 19.592 19.594">
            <path paint-order="stroke fill markers" fill-rule="evenodd"
                d="M.166 20.555C10.859 20.27 19.476 11.65 19.758.96H.166v19.595z" />
        </svg>
    </svg>
</svg>