<svg width="85" height="70" xmlns="http://www.w3.org/2000/svg" xmlns:xlink="http://www.w3.org/1999/xlink" xmlns:svgjs="http://svgjs.com/svgjs" viewBox="1223 369 85 70"><svg width="12" height="14" xmlns="http://www.w3.org/2000/svg" xmlns:xlink="http://www.w3.org/1999/xlink" xmlns:svgjs="http://svgjs.com/svgjs" viewBox="0 0.045 12 13.909" fill="#1a1818" x="1235" y="425"><svg xmlns="http://www.w3.org/2000/svg" xmlns:xlink="http://www.w3.org/1999/xlink" width="12" height="14" viewBox="0.297 0.174 11.185 12.965"><path paint-order="stroke fill markers" fill-rule="evenodd" d="M10.106 8.72c-.22-.62-.95-2.724-1.396-3.958-.46-1.231-1.192-3.5-1.316-3.893C7.27.48 7.254.306 6.83.257 6.41.214 5.32.142 4.77.189c-.09.008-.263.015-.348.291-.082.27-.918 2.822-1.266 3.874a450.555 450.555 0 0 0-1.533 4.49c-.139.414-1.06 3.17-1.224 3.638-.142.478-.166.612.132.612.314 0 .528.02.829.02.298 0 .437.015.537-.224.124-.286 1.082-3.172 1.082-3.172h2.204c.953 0 2.262-.013 2.262-.013s.172.299.557 1.533c.396 1.234.513 1.9 1.09 1.9h2.023c.278 0 .368-.109.368-.328 0-.221-.224-.734-.224-.734s-.94-2.729-1.152-3.356zm-4.871-.365c-1.09 0-1.816-.035-1.816-.035s.161-.558.85-2.662c.69-2.11.913-2.744.913-2.744s.284.718 1.006 2.92c.699 2.192.788 2.508.788 2.508s-.64.013-1.741.013z"/></svg></svg><svg width="12" height="14" xmlns="http://www.w3.org/2000/svg" xmlns:xlink="http://www.w3.org/1999/xlink" xmlns:svgjs="http://svgjs.com/svgjs" viewBox="0 0.042 12 13.916" fill="#1a1818" x="1267" y="425"><svg xmlns="http://www.w3.org/2000/svg" xmlns:xlink="http://www.w3.org/1999/xlink" width="12" height="14" viewBox="0.131 0.174 11.18 12.965"><path paint-order="stroke fill markers" fill-rule="evenodd" d="M9.936 8.72c-.21-.62-.94-2.724-1.399-3.958-.448-1.231-1.184-3.5-1.3-3.893-.133-.389-.14-.563-.578-.612C6.231.214 5.156.142 4.599.189c-.09.008-.251.015-.346.291-.087.27-.913 2.822-1.271 3.874-.348 1.045-1.41 4.08-1.528 4.49-.136.414-1.062 3.17-1.214 3.638-.154.478-.174.612.132.612.301 0 .52.02.821.02.301 0 .445.015.538-.224.124-.286 1.082-3.172 1.082-3.172H5.01c.96 0 2.268-.013 2.268-.013s.172.299.558 1.533c.395 1.234.507 1.9 1.087 1.9h2.025c.279 0 .363-.109.363-.328 0-.221-.218-.734-.218-.734s-.946-2.729-1.157-3.356zm-4.867-.365c-1.097 0-1.816-.035-1.816-.035s.162-.558.851-2.662c.69-2.11.913-2.744.913-2.744s.286.718.998 2.92c.706 2.192.796 2.508.796 2.508s-.647.013-1.742.013z"/></svg></svg><svg width="4" height="14" xmlns="http://www.w3.org/2000/svg" xmlns:xlink="http://www.w3.org/1999/xlink" xmlns:svgjs="http://svgjs.com/svgjs" viewBox="0.379 0 3.241 14" fill="#1a1818" x="1248" y="425"><svg xmlns="http://www.w3.org/2000/svg" xmlns:xlink="http://www.w3.org/1999/xlink" width="4" height="14" viewBox="0.599 0.214 3 12.96"><path paint-order="stroke fill markers" fill-rule="evenodd" d="M3.512.57c0-.363-.62-.348-.973-.348-.348 0-.84-.008-1.316-.008C.736.214.6.436.6.97c0 .533.032 2.936.032 3.971 0 1.033.038 6.86.038 7.52 0 .658.298.707.77.712.468.008 1.163-.027 1.633-.027.462 0 .527-.259.527-.853 0-.595-.04-4.914-.04-5.852 0-.938-.047-5.51-.047-5.871z"/></svg></svg><svg width="11" height="14" xmlns="http://www.w3.org/2000/svg" xmlns:xlink="http://www.w3.org/1999/xlink" xmlns:svgjs="http://svgjs.com/svgjs" viewBox="0.143 0 10.714 14" fill="#1a1818" x="1255" y="425"><svg xmlns="http://www.w3.org/2000/svg" xmlns:xlink="http://www.w3.org/1999/xlink" width="11" height="14" viewBox="0.304 0.212 9.922 12.964"><path paint-order="stroke fill markers" fill-rule="evenodd" d="M9.63.212c-.465 0-.932.01-1.256.01-.333 0-.933-.013-.933.348 0 .299-.034 3.525-.034 5.137 0 0-.906.018-2.254.018-1.359 0-2.01-.018-2.01-.018C3.122 4.095 3.09.87 3.09.57c0-.36-.602-.348-.933-.348-.32 0-.801-.01-1.261-.01-.468 0-.592.224-.592.756 0 .535.032 2.936.032 3.973 0 1.03.027 6.86.027 7.516 0 .66.306.709.744.719.448.002 1.122-.027 1.56-.027.435 0 .5-.262.5-.856 0-.495-.02-3.62-.025-5.165 0 0 1.39-.01 1.99-.01.595 0 2.255.01 2.255.01 0 1.545-.018 4.67-.018 5.165 0 .594.052.856.493.856.44 0 1.112.03 1.56.027.445-.01.739-.055.739-.719 0-.657.02-6.483.02-7.516 0-1.037.044-3.438.044-3.973 0-.532-.134-.756-.594-.756z"/></svg></svg><svg width="11" height="14" xmlns="http://www.w3.org/2000/svg" xmlns:xlink="http://www.w3.org/1999/xlink" xmlns:svgjs="http://svgjs.com/svgjs" viewBox="0.097 0 10.805 14" fill="#1a1818" x="1277" y="425"><svg xmlns="http://www.w3.org/2000/svg" xmlns:xlink="http://www.w3.org/1999/xlink" width="11" height="14" viewBox="0.314 0.308 10.047 13.018"><path paint-order="stroke fill markers" fill-rule="evenodd" d="M9.984.396C9.608.373 7.138.324 6.601.316 6.08.306 4.04.306 3.648.314 3.259.316.778.354.582.354c-.179 0-.268.216-.268.669 0 .465.04.744.288.744.247 0 2.172.005 2.692.017.266.003.373 0 .446 0 .07 0 .174-.01.174.067 0 .08.047 1.891.047 2.583 0 .691-.032 2.542-.032 3.276 0 .742.052 3.172.052 3.483 0 .299.005 1.045.032 1.45.02.404 0 .488.184.525.194.043.923.117 1.436.14.527.025 1.191.124 1.191-.61L6.82 9.243c0-.237-.018-2.762-.018-2.98V3.271 1.95c0-.125.037-.157.18-.157.141 0 1.564.03 2.111.03h.891c.132 0 .286.037.306-.174.032-.212.057-.65.07-.866.007-.212-.013-.368-.376-.388z"/></svg></svg><svg width="9" height="14" xmlns="http://www.w3.org/2000/svg" xmlns:xlink="http://www.w3.org/1999/xlink" xmlns:svgjs="http://svgjs.com/svgjs" viewBox="0.381 0 8.238 14" fill="#1a1818" x="1287" y="425"><svg xmlns="http://www.w3.org/2000/svg" xmlns:xlink="http://www.w3.org/1999/xlink" width="9" height="14" viewBox="0.972 0.304 7.74 13.153"><path paint-order="stroke fill markers" fill-rule="evenodd" d="M3.131 2.95c0-.74.543-1.375 1.816-1.375 1.943 0 2.463.883 2.827.883.107 0 .186-.097.186-.234v-.952c0-.192-.054-.309-.398-.476C7.204.627 6.19.304 4.811.304 3.1.304.97.816.97 3.67c0 3.878 5.387 4.446 5.387 7.2 0 .505-.214 1.296-1.587 1.296-2.413 0-2.983-.821-3.51-.821-.162 0-.195.303-.195.57v.52c0 .166.005.378.331.477.321.102 1.936.545 3.16.545 1.81 0 4.155-.711 4.155-3.44 0-3.872-5.58-4.857-5.58-7.066z"/></svg></svg><svg width="11" height="14" xmlns="http://www.w3.org/2000/svg" xmlns:xlink="http://www.w3.org/1999/xlink" xmlns:svgjs="http://svgjs.com/svgjs" viewBox="0.515 0 9.97 14" fill="#1a1818" x="1297" y="425"><svg xmlns="http://www.w3.org/2000/svg" xmlns:xlink="http://www.w3.org/1999/xlink" width="11" height="14" viewBox="0.844 0.48 9.295 13.051"><path paint-order="stroke fill markers" fill-rule="evenodd" d="M9.61.562c-.278 0-.723-.012-.905-.012-.179 0-.224.114-.224.366 0 .258.025 1.535.025 2.368.015 1.57.06 5.391.06 6.404 0 2.595-1.938 2.59-2.453 2.59-2.687 0-2.466-2.438-2.466-3.75 0-.716-.005-2.33-.005-2.818 0-.495.018-3.14.018-4.155 0-1.022-.266-1.06-.528-1.062-.268-.01-.55-.013-.888-.013-.338 0-.594.03-.982.03C.878.51.844.7.844.953c0 .246.042 6.19.042 8.334 0 2.14 1.363 4.245 5.354 4.245 3.978 0 3.898-2.946 3.898-3.747V5.92c0-3.632-.045-4.958-.045-5.157 0-.2-.181-.202-.482-.202z"/></svg></svg><svg width="11" height="14" xmlns="http://www.w3.org/2000/svg" xmlns:xlink="http://www.w3.org/1999/xlink" xmlns:svgjs="http://svgjs.com/svgjs" viewBox="0 0.328 11 13.345" fill="#1a1818" x="1223" y="425"><svg xmlns="http://www.w3.org/2000/svg" xmlns:xlink="http://www.w3.org/1999/xlink" width="11" height="14" viewBox="0.215 0.13 10.673 12.948"><path paint-order="stroke fill markers" fill-rule="evenodd" d="M5.119.13H.787C.43.13.215.145.215.55c0 .406.013 4.192.013 6.379 0 2.177.052 5.334.052 5.635 0 .303.007.445.756.495.757.035 3.655.01 4.518.01 3.533 0 5.334-2.53 5.334-6.172C10.888.886 7.52.13 5.118.13zm-.416 11.61c-.731 0-1.604-.047-1.604-.047v-9.84c0-.318.27-.29.442-.29H4.56c1.572 0 3.446.037 3.446 4.973 0 4.943-1.685 5.204-3.302 5.204z"/></svg></svg><svg width="85" height="51" xmlns="http://www.w3.org/2000/svg" xmlns:xlink="http://www.w3.org/1999/xlink" xmlns:svgjs="http://svgjs.com/svgjs" viewBox="0 0.345 85 50.31" fill="#1a1818" x="1223" y="369"><svg xmlns="http://www.w3.org/2000/svg" width="85" height="51" viewBox="0.215 0.387 83.923 49.673"><path paint-order="stroke fill markers" fill-rule="evenodd" d="M.215 50.06h83.923V.386H.215v49.672zm10.176-37.615L29.537 31.53s47.008-4.135 47.008-9.081c0-2.976-20.99-5.595-31.267-6.434-9.19-.754-19.34-.709-19.34-.709l14.22 14.184-10.138 1.032-18.134-18.077s11.847-.729 33.392 1.204c21.555 1.94 33.504 5.23 33.504 8.688 0 9.193-58.355 18.191-58.355 18.191l5.217-8.125L5.649 12.669l4.742-.224z"/></svg></svg></svg>