<svg width="128" height="58" xmlns="http://www.w3.org/2000/svg" xmlns:xlink="http://www.w3.org/1999/xlink" xmlns:svgjs="http://svgjs.com/svgjs" viewBox="638 381 128 58"><svg width="50" height="37" xmlns="http://www.w3.org/2000/svg" xmlns:xlink="http://www.w3.org/1999/xlink" xmlns:svgjs="http://svgjs.com/svgjs" viewBox="0 0.319 50 36.363" fill="#1a1818" x="677" y="381"><svg xmlns="http://www.w3.org/2000/svg" xmlns:xlink="http://www.w3.org/1999/xlink" width="50" height="37" viewBox="0.112 0.654 49.511 36.007"><path paint-order="stroke fill markers" fill-rule="evenodd" d="M15.014 18.375c-1.617 2.55-1.759 3.784-1.804 4.615-.054.809-.054 2.262 1.26 3.45 2.223 1.971 5.32 1.653 8.072 1.653h22.682c.968 0 1.252-.281 1.77-.983 1.813-2.761 2.629-5.754 2.629-8.434 0-5.737-3.745-12.964-13.206-16.23l-1.062 1.52c7.5 3.55 10.613 8.197 10.613 14.698a9.353 9.353 0 0 1-1.565 5.366H22.348c-1.323 0-1.502-1.488-1.032-2.324a88.458 88.458 0 0 1 6.321-9.657c2.232-2.963 4.429-5.737 6.728-8.64.624-.807.206-1.583-1.033-1.837-2.577-.545-5.27-.918-8.526-.918C6.71.654.112 11.006.112 18.681c0 8.315 6.657 17.98 24.739 17.98 10.041 0 16.614-3.224 20.42-7.362h-3.838c-3.332 3.06-9.041 5.23-16.582 5.23-15.315 0-20.965-8.578-20.965-15.965.117-6.588 6.177-15.688 21.35-15.992.575-.017 1.018.508.62 1-2.595 3.182-9.994 13.475-10.842 14.803z"/></svg></svg><svg width="128" height="17" xmlns="http://www.w3.org/2000/svg" xmlns:xlink="http://www.w3.org/1999/xlink" xmlns:svgjs="http://svgjs.com/svgjs" viewBox="0 0.518 128 15.964" fill="#1a1818" x="638" y="422"><svg xmlns="http://www.w3.org/2000/svg" width="128" height="17" viewBox="0.04 0.662 127.244 15.87"><path paint-order="stroke fill markers" fill-rule="evenodd" d="M122.194 7.085h-14.517c.194-1.761 1.717-3.231 3.257-3.231h14.69L125.573.79h-15.571c-4.929 0-8.867 4.075-8.986 8.817-.018.33.206.535.582.535l17.671-.062c.908.124 1.605.84 1.605 1.684 0 .948-.873 1.71-1.918 1.71h-19.44V.802h-5.72v12.704H83.271c-2.863 0-3.45-1.727-3.45-3.314V.726h-9.496c-.939.64-1.847 1.334-2.812 1.918L61.886 6.1 54.56.774H43.174 32.43c-2.91 0-5.147.758-6.804 2.062-2.983 2.341-3.926 4.82-3.888 5.929h3.873c-1.702 1.268-2.849 2.791-3.448 4.552H9.424c-2.286 0-3.757-1.617-3.757-3.192V.662H.04v9.832c0 3.532 3.366 5.978 8.772 5.978h42.679c.891-.597 1.73-1.234 2.655-1.796l5.8-3.498 7.343 5.227h8.367l-11.054-8.29 5.68-3.697c1.21-.79 2.48-1.455 3.722-2.187v8.347c0 3.516.9 5.954 8.016 5.954l40.174-.092c3.097.044 5.09-2.098 5.09-4.675 0-2.565-2.286-4.68-5.09-4.68zm-71.837 6.2h-7.183-13.63c.054-1.622 1.783-3.252 3.36-3.252h13.109V6.78h-2.839-13.797c-.19-.948 1.597-2.816 2.96-2.816H47.29V2.217l9.693 6.93-6.625 4.138z"/></svg></svg></svg>