<svg width="120" height="21" xmlns="http://www.w3.org/2000/svg" xmlns:xlink="http://www.w3.org/1999/xlink" xmlns:svgjs="http://svgjs.com/svgjs" viewBox="1343 418 120 21"><svg width="7" height="21" xmlns="http://www.w3.org/2000/svg" xmlns:xlink="http://www.w3.org/1999/xlink" xmlns:svgjs="http://svgjs.com/svgjs" viewBox="0.325 0 6.349 21" fill="#1a1818" x="1343" y="418"><svg xmlns="http://www.w3.org/2000/svg" xmlns:xlink="http://www.w3.org/1999/xlink" width="7" height="21" viewBox="0.877 0.86 5.936 19.634"><path paint-order="stroke fill markers" fill-rule="evenodd" d="M5.775.86H1.922C1.207.86.877 1.201.877 1.893v17.574c0 .691.35 1.022 1.045 1.022l3.866.005c.711 0 1.025-.358 1.025-1.04V1.893c0-.704-.346-1.033-1.038-1.033z"/></svg></svg><svg width="25" height="21" xmlns="http://www.w3.org/2000/svg" xmlns:xlink="http://www.w3.org/1999/xlink" xmlns:svgjs="http://svgjs.com/svgjs" viewBox="0 0.264 25 20.473" fill="#1a1818" x="1355" y="418"><svg xmlns="http://www.w3.org/2000/svg" xmlns:xlink="http://www.w3.org/1999/xlink" width="25" height="21" viewBox="0.226 0.86 23.985 19.642"><path paint-order="stroke fill markers" fill-rule="evenodd" d="M19.91 10.486A5648.344 5648.344 0 0 0 6.34 6.196c-.406-.121-.413-.4-.353-.589.04-.189.211-.271.542-.271l15.089.002c.696 0 1.015-.318 1.015-1.032V1.893c0-.692-.306-1.033-1.02-1.033H6.327C2.092.86.27 3.18.27 5.876c0 2.134 1.037 3.878 3.784 4.799.563.191 13.726 4.361 14.124 4.485.378.127.428.43.366.605-.065.209-.215.32-.528.32H1.274c-.71 0-1.048.33-1.048 1.028v2.339c0 .764.314 1.042 1.055 1.042 0 0 15.385.02 16.838-.005 3.851-.047 6.093-1.582 6.093-4.831 0-2.712-1.18-4.162-4.302-5.172z"/></svg></svg><svg width="24" height="21" xmlns="http://www.w3.org/2000/svg" xmlns:xlink="http://www.w3.org/1999/xlink" xmlns:svgjs="http://svgjs.com/svgjs" viewBox="0.023 0 23.955 21" fill="#1a1818" x="1383" y="418"><svg xmlns="http://www.w3.org/2000/svg" xmlns:xlink="http://www.w3.org/1999/xlink" width="24" height="21" viewBox="0.864 0.853 22.448 19.679"><path paint-order="stroke fill markers" fill-rule="evenodd" d="M22.28.86L18.379.853c-.742 0-1.043.336-1.043 1.027v11.14c0 1.852-.28 2.941-2.819 3.024a101.21 101.21 0 0 1-4.724 0c-2.535-.083-2.985-1.172-2.985-3.023V1.88c0-.705-.346-1.02-1.033-1.02H1.881c-.71 0-1.017.33-1.017 1.02l.005 12.073c0 3.102.694 6.456 6.538 6.52 2.132.028 4.665.058 4.665.058s2.373-.023 4.515-.058c6.185-.102 6.725-3.278 6.725-6.52V1.893c0-.697-.313-1.033-1.032-1.033z"/></svg></svg><svg width="24" height="21" xmlns="http://www.w3.org/2000/svg" xmlns:xlink="http://www.w3.org/1999/xlink" xmlns:svgjs="http://svgjs.com/svgjs" viewBox="0.021 0 23.958 21" fill="#1a1818" x="1439" y="418"><svg xmlns="http://www.w3.org/2000/svg" xmlns:xlink="http://www.w3.org/1999/xlink" width="24" height="21" viewBox="0.645 0.853 22.451 19.679"><path paint-order="stroke fill markers" fill-rule="evenodd" d="M22.07.86L18.157.853c-.732 0-1.038.336-1.038 1.027v11.14c0 1.852-.28 2.941-2.814 3.024a101.273 101.273 0 0 1-4.727 0C7.041 15.96 6.59 14.872 6.59 13.02V1.88c0-.705-.34-1.02-1.03-1.02H1.67C.95.86.644 1.19.644 1.88v12.073c0 3.102.706 6.456 6.55 6.52 2.132.028 4.665.058 4.665.058s2.37-.023 4.5-.058c6.2-.102 6.735-3.278 6.735-6.52V1.893c.01-.697-.313-1.033-1.025-1.033z"/></svg></svg><svg width="25" height="21" xmlns="http://www.w3.org/2000/svg" xmlns:xlink="http://www.w3.org/1999/xlink" xmlns:svgjs="http://svgjs.com/svgjs" viewBox="0 0.263 25 20.474" fill="#1a1818" x="1410" y="418"><svg xmlns="http://www.w3.org/2000/svg" width="25" height="21" viewBox="0.957 0.86 23.983 19.641"><path paint-order="stroke fill markers" fill-rule="evenodd" d="M23.9 16.086H7.14c-.302 0-.449-.112-.516-.316-.062-.18-.02-.483.373-.612.386-.124 13.557-4.287 14.116-4.483 2.75-.928 3.785-2.665 3.785-4.8 0-2.696-1.824-5.015-6.056-5.015H3.56c-.721 0-1.035.341-1.035 1.033v2.413c0 .714.326 1.032 1.028 1.032l15.096-.002c.326 0 .488.082.543.271.044.19.04.468-.356.59-.508.156-11.544 3.632-13.582 4.289-3.124 1.01-4.296 2.46-4.296 5.172 0 3.25 2.236 4.784 6.085 4.831 1.448.025 16.846.003 16.846.003.736 0 1.052-.276 1.052-1.04v-2.339c0-.699-.329-1.027-1.04-1.027z"/></svg></svg></svg>