<svg width="111" height="83" xmlns="http://www.w3.org/2000/svg" xmlns:xlink="http://www.w3.org/1999/xlink" xmlns:svgjs="http://svgjs.com/svgjs" viewBox="1483 356 111 83"><svg width="69" height="56" xmlns="http://www.w3.org/2000/svg" xmlns:xlink="http://www.w3.org/1999/xlink" xmlns:svgjs="http://svgjs.com/svgjs" viewBox="0 0.208 69 55.583" fill="#1a1818" x="1504" y="356"><svg xmlns="http://www.w3.org/2000/svg" xmlns:xlink="http://www.w3.org/1999/xlink" width="69" height="56" viewBox="0.896 0.96 67.682 54.522"><path paint-order="stroke fill markers" fill-rule="evenodd" d="M62.423 9.99C55.505 2.563 44.19.96 34.676.96c-9.598 0-21.259 1.602-28.055 9.459-.127.139-.22.286-.334.432-3.334 3.971-5.39 9.676-5.39 17.313 0 23.553 19.21 27.317 33.78 27.317 14.69 0 33.901-3.764 33.901-27.317 0-7.637-2.055-13.342-5.408-17.313a33.15 33.15 0 0 1-.747-.86zM12.66 14.617c4.54-6.984 13.18-8.71 22.017-8.71 8.867 0 17.281 1.617 21.92 8.493.08.162.197.316.285.47-7.857 4.603-16.8 4.767-22.205 16.306-5.874-11.2-14.715-11.28-22.485-15.716.142-.284.306-.557.468-.843zm22.017 35.92c-13.051.111-25.363-3.653-25.363-22.372 0-1.395 0-2.793.218-3.98.075-.259.13-.523.202-.784 4.401 1.478 8.79 2.96 13.193 4.444C28.094 30 31.552 33.01 34.676 39.78c3.133-6.77 6.481-10.212 11.773-12.364 4.438-1.583 8.864-3.167 13.293-4.742.04.104.06.216.082.338.226 1.495.335 3.331.335 5.157 0 18.714-12.414 22.478-25.483 22.366z"/></svg></svg><svg width="111" height="20" xmlns="http://www.w3.org/2000/svg" xmlns:xlink="http://www.w3.org/1999/xlink" xmlns:svgjs="http://svgjs.com/svgjs" viewBox="1483 419 111 20" x="1483" y="419"><svg width="15" height="6" xmlns="http://www.w3.org/2000/svg" xmlns:xlink="http://www.w3.org/1999/xlink" xmlns:svgjs="http://svgjs.com/svgjs" viewBox="0 0.043 15 5.914" fill="#1a1818" x="1533" y="419"><svg xmlns="http://www.w3.org/2000/svg" xmlns:xlink="http://www.w3.org/1999/xlink" width="15" height="6" viewBox="0.165 0.15 14.667 5.783"><path paint-order="stroke fill markers" fill-rule="evenodd" d="M7.853 5.933L14.833.15H.165v5.783h7.688z"/></svg></svg><svg width="111" height="20" xmlns="http://www.w3.org/2000/svg" xmlns:xlink="http://www.w3.org/1999/xlink" xmlns:svgjs="http://svgjs.com/svgjs" viewBox="0 0.255 111 19.491" fill="#1a1818" x="1483" y="419"><svg xmlns="http://www.w3.org/2000/svg" xmlns:xlink="http://www.w3.org/1999/xlink" width="111" height="20" viewBox="0.535 0.146 110.401 19.386"><path paint-order="stroke fill markers" fill-rule="evenodd" d="M105.138.151h-12.95v5.24h10.27c2.988 0 2.515 1.948 2.515 1.948h-8.23c-1.02 0-4.236-.155-5.799 2.34v-.932c0-8.83-6.672-8.596-6.672-8.596h-17.4L49.15 14.138V5.542c0-5.625-5.807-5.39-5.807-5.39H30.41V5.39h10.267c2.988 0 2.59 1.948 2.59 1.948h-8.23c-1.015 0-4.152-.155-5.725 2.266V7.423c0-7.735-6.99-7.272-6.99-7.272H.535v19.38h6.59V5.934h4.623v13.594h6.282V5.933h2.107c3.063 0 2.662 2.498 2.662 2.498v11.096h6.513v-2.578c1.573 2.578 4.71 2.578 4.71 2.578h18.032l17.79-14.293v14.22h13.96c2.672 0 5.172-1.328 6.357-4.923.704 4.924 5.64 5 5.64 5h15.136V5.543c0-5.625-5.8-5.39-5.8-5.39zM43.182 14.215h-6.9s-1.402.08-1.402-1.326c0-1.172 1.092-1.254 1.483-1.254h6.82v2.58zm38.826-.39h-5.884V5.622h5.956s2.814.231 2.814 3.829c0 3.595-1.314 4.374-2.886 4.374zm22.809.39h-6.894s-1.413.08-1.413-1.326c0-1.172 1.172-1.254 1.565-1.254h6.742v2.58z"/></svg></svg><svg width="15" height="7" xmlns="http://www.w3.org/2000/svg" xmlns:xlink="http://www.w3.org/1999/xlink" xmlns:svgjs="http://svgjs.com/svgjs" viewBox="0 0.583 15 5.834" fill="#1a1818" x="1537" y="432"><svg xmlns="http://www.w3.org/2000/svg" width="15" height="7" viewBox="0.094 0.828 14.66 5.702"><path paint-order="stroke fill markers" fill-rule="evenodd" d="M.094 6.53h14.66V.828H7.062L.094 6.53z"/></svg></svg></svg></svg>