<svg width="71" height="70" xmlns="http://www.w3.org/2000/svg" xmlns:xlink="http://www.w3.org/1999/xlink" xmlns:svgjs="http://svgjs.com/svgjs" viewBox="0.112 0 70.776 70" fill="#1a1818"><svg xmlns="http://www.w3.org/2000/svg" width="71" height="70" viewBox="0.197 0.386 69.911 69.145"><path paint-order="stroke fill markers" fill-rule="evenodd" d="M35.142.386C15.848.38.197 15.861.197 34.956c0 19.089 15.64 34.57 34.945 34.576 19.31 0 34.967-15.477 34.967-34.577C70.109 15.871 54.458.386 35.142.386zm0 67.832c-13.134 0-23.433-6.827-28.34-16.21l.75-.28c1.273 2.083 2.943 3.911 5.182 6.382 2.759 3.035 11.481 8.884 22.393 8.884 11.626.003 21.836-6.028 27.565-15.236.44-.124.585-.316.433-.699 2.623-4.622 4.406-10.429 4.406-16.104 0-3.577-.525-6.483-1.358-9.08a36.843 36.843 0 0 0-1.87-4.675.748.748 0 0 1-.125-.45c.137.117.206.194.313.38.508.93 1.637 3.195 2.172 4.673.72 1.977 2.01 4.704 2.01 9.152 0 18.194-14.897 33.273-33.531 33.263zM7.116 51.233l24.48-17.606-2.092-1.192L7.696 50.572C5.243 46.128 3.54 40.432 3.54 35.01c0-17.174 13.666-31.073 30.981-31.18L30.057 31.6l2.085 1.21 2.806-28.98c.05-.364.29-.364.29 0l.173 30.56 4.97-2.92-4.756-27.645c17.012.457 31.115 14.173 31.115 31.13 0 5.466-1.662 11.173-4.167 15.647L40.784 32.448l-2.1 1.199L62.11 50.634c.565.398.388.582-.214.249L35.592 35.712v5.684L61.961 51.47c-5.523 9.01-15.5 14.778-26.909 14.778-11.431 0-21.244-5.76-26.774-14.788l26.419-10.081v-5.685l-27.352 15.8c-.66.356-.829.162-.229-.26zm61.503-22.137c-.077-.094-.127-.23-.19-.398-2.555-7.874-4.729-10.969-8.928-15.574C53.975 7.06 44.954 2.377 35.356 2.364c-18.348 0-33.23 14.893-33.23 33.236 0 5.458 1.186 10.165 2.139 12.534 1.127 2.744 3.06 6.438 3.157 6.607a.95.95 0 0 1 .105.438c-.137-.104-.194-.189-.314-.365-.557-.807-2.836-4.914-3.55-6.705C2.125 44.203.98 39.946.98 35.475c0-18.91 15.308-34.253 34.23-34.253 16.898 0 30.532 11.743 33.408 27.464.01.147.054.276 0 .41zM6.482 51.54c-1.16-2.398-2.379-5.774-2.884-8.446-.007-.157-.032-.281.015-.423.09.11.127.23.197.413.793 2.453 1.48 4.653 3.291 7.966l-.62.49z"/></svg></svg>